<?xml version="1.0" standalone="no"?>
<!DOCTYPE svg PUBLIC "-//W3C//DTD SVG 20010904//EN"
 "http://www.w3.org/TR/2001/REC-SVG-20010904/DTD/svg10.dtd">
<svg version="1.0" xmlns="http://www.w3.org/2000/svg"
 width="700.000000pt" height="700.000000pt" viewBox="0 0 700.000000 700.000000"
 preserveAspectRatio="xMidYMid meet">
<metadata>
Created by potrace 1.14, written by Peter Selinger 2001-2017
</metadata>
<g transform="translate(0.000000,700.000000) scale(0.100000,-0.100000)"
fill="#000000" stroke="none">
<path d="M1077 6973 c-2 -1 -106 -3 -232 -4 -254 -2 -309 -10 -407 -60 -87
-44 -113 -63 -199 -149 -86 -86 -139 -170 -176 -279 -25 -74 -25 -84 -31 -451
-4 -206 -7 -1333 -7 -2505 0 -2008 6 -2881 20 -2950 10 -49 56 -157 90 -210
127 -198 330 -322 545 -331 534 -22 5232 -21 5655 1 50 3 113 12 140 21 60 20
163 71 182 90 8 8 18 14 22 14 14 0 138 128 169 173 73 106 112 217 117 331
22 492 22 5240 0 5671 -10 200 -144 412 -336 530 -63 39 -175 84 -229 92 -19
2 -370 7 -780 9 -764 5 -4540 10 -4543 7z m2107 -1333 l46 -33 1 -241 c1 -698
7 -953 20 -981 23 -46 73 -58 244 -59 136 0 154 2 197 22 25 13 49 31 53 40 7
15 10 221 16 976 2 231 2 241 23 258 54 47 74 51 241 53 88 0 173 -3 189 -7
16 -4 45 -22 63 -40 l33 -32 0 -749 0 -750 -35 -73 c-45 -93 -122 -171 -213
-216 l-67 -33 -500 0 -500 0 -67 33 c-88 43 -167 123 -210 209 l-33 68 -2 760
-1 759 35 31 c20 16 47 33 62 36 14 4 101 5 193 4 l166 -2 46 -33z m2774 26
c126 -7 177 -40 235 -150 20 -39 22 -55 24 -346 3 -363 -4 -411 -69 -485 -44
-50 -78 -71 -129 -81 -71 -13 -57 -12 -549 -28 l-65 -2 -1 -351 c0 -291 -3
-354 -15 -369 -8 -10 -27 -33 -43 -51 l-29 -33 -140 0 c-77 0 -168 5 -203 11
-85 15 -105 37 -113 126 -3 37 -8 427 -10 866 l-3 798 28 37 c57 74 10 68 524
66 256 -1 507 -5 558 -8z m-4008 -5 c0 -5 12 -24 27 -42 l27 -32 1 -1748 0
-1748 40 -35 c44 -40 58 -43 193 -50 105 -5 119 -13 155 -81 19 -37 20 -55 18
-230 -1 -104 -4 -203 -6 -220 -1 -16 -3 -39 -4 -51 -1 -11 -18 -37 -38 -57
l-36 -37 -740 2 -740 3 -31 38 -30 38 -2 261 c-2 256 -1 262 20 280 46 40 75
48 180 52 103 4 132 13 181 51 20 16 20 28 20 1301 l0 1284 -36 36 c-35 34
-37 35 -135 39 -149 6 -201 31 -221 105 -3 14 -7 121 -7 238 l-1 213 153 152
c85 84 175 173 200 199 l47 47 383 1 c227 0 382 -4 382 -9z m4230 -2482 l46
-51 -2 -86 c-1 -48 -3 -123 -4 -167 -3 -96 -17 -134 -61 -166 l-33 -23 -1678
-1 -1679 0 -35 36 c-21 21 -39 53 -44 75 -13 57 -5 343 11 376 17 39 58 48
239 55 85 3 156 6 157 7 1 1 685 0 1519 -2 l1517 -3 47 -50z"/>
<path d="M5498 5275 c-2 -2 -30 -5 -63 -7 -72 -6 -106 -22 -140 -68 -32 -43
-33 -93 -2 -137 35 -51 63 -58 247 -58 187 0 215 8 244 69 22 47 20 87 -7 127
-34 51 -86 71 -189 74 -48 1 -89 1 -90 0z"/>
</g>
</svg>
