<?xml version="1.0" encoding="utf-8"?>
<!-- Generator: Adobe Illustrator 26.3.1, SVG Export Plug-In . SVG Version: 6.00 Build 0)  -->
<svg version="1.1" id="Capa_1" xmlns="http://www.w3.org/2000/svg" xmlns:xlink="http://www.w3.org/1999/xlink" x="0px" y="0px"
	 viewBox="0 0 223.9 246.7" style="enable-background:new 0 0 223.9 246.7;" xml:space="preserve">
<style type="text/css">
	.st0{fill:#666D79;}
	.st1{fill:#565D67;}
	.st2{fill:#444B55;}
	.st3{fill:#6598D1;}
	.st4{fill:#EA5566;}
	.st5{fill:#E6E9ED;}
	.st6{fill:#6799D2;}
	.st7{fill:#6699D1;}
	.st8{fill:#79A5D8;}
</style>
<g>
	<path class="st0" d="M0.4,44.1C0.3,30.5,0.3,16.8,0.1,3.2c0-2.4,0.7-3.4,3.1-3.1c0.8,0.1,1.7,0,2.5,0c70.9,0,141.8,0,212.7-0.1
		c4.5,0,5.8,1.1,5.7,5.7c-0.4,12.8-0.2,25.6-0.3,38.4c-1.9,1.8-4.3,1.6-6.6,1.6c-70.1,0-140.2,0-210.3,0C4.7,45.7,2.3,45.8,0.4,44.1
		z"/>
	<path class="st1" d="M0.3,231c0-0.3,0-0.7,0-1c6.3-12.8,14.3-24.6,21.5-36.8c0.9-1.5,2.4-2.3,4.1-2.5c2.2-0.3,4.3-0.3,6.5-0.3
		c53.2,0,106.4,0,159.6,0c2,0,4,0,6,0.2c2.3,0.2,4,1.6,5.1,3.5c6.4,10.5,12.7,21.1,19,31.6c0.8,1.3,0.8,2.9,1.6,4.2c0,0.7,0,1.3,0,2
		c-1.9,1.9-4.3,1.6-6.6,1.6c-69.8,0-139.6,0-209.4,0C5.2,233.6,2.1,234.1,0.3,231z"/>
	<path class="st1" d="M0.4,44.1c74.5,0,149,0,223.5,0c0,0.3,0,0.7,0,1c-1.1,2.8-3.8,4.1-5.9,5.8c-7.9,6.3-15.9,12.4-23.9,18.6
		c-2.4,1.9-4.8,3.6-7.9,3.9c-16.6,0.4-33.3,0.2-49.9,0.2c-30.1,0.1-60.2,0-90.3,0c-3,0-6-0.2-8.8,1.2c-0.8,0.3-1.7,0.7-2.3,0
		c-7.2-9.2-17.6-14.5-26.2-22.1c-2.8-2.5-6.4-4.2-8.4-7.7C0.4,44.8,0.4,44.4,0.4,44.1z"/>
	<path class="st2" d="M0.4,45.1c11.5,8.1,22.3,17,33.4,25.7c1.7,1.3,1.2,2.9,1.6,4.5c1.9,2.5,1.4,5.4,1.1,8.1c-3.4,33-6.7,66-9.9,99
		c-0.3,3.2-0.2,6.7-2.3,9.6c-6.5,10.7-13.1,21.3-19.6,32c-1.3,2.1-2.3,4.4-4.3,5.9c-0.1-14.5-0.1-29-0.2-43.5c0-45.3,0-90.6,0-135.9
		C0.2,48.8,0.3,47,0.4,45.1z"/>
	<path class="st2" d="M188,72.1c9.4-5.8,17.5-13.4,26.4-19.9c3.2-2.3,6.3-4.7,9.5-7.1c0.1,7.2,0.2,14.3,0.2,21.5
		c0,52.6,0,105.2,0,157.9c0,1.8-0.1,3.7-0.1,5.5c-6.6-8.9-11.5-18.8-17.4-28.1c-2.1-3.3-3.6-7.1-6.5-9.9c-3.2-6.7-2.5-14-3.3-21
		c-2.4-22.1-4.5-44.2-6.7-66.4c-0.9-9.4-2-18.8-2.7-28.3C187.2,74.9,187,73.4,188,72.1z"/>
	<path class="st0" d="M0.3,231c1.6,1.1,3.5,1,5.3,1c72.7,0,145.5,0,218.2,0c0.2,5.1,2.1,11.6-0.6,15c-2.6,3.2-9.4,1-14.3,1
		c-67.7,0.1-135.5,0-203.2,0.1c-4.4,0-6.2-0.9-5.7-5.6C0.5,238.7,0.3,234.8,0.3,231z"/>
	<path class="st1" d="M112.7,12.1c13.6,0,27.3,0,40.9,0c3,0,6.2,0,6.3,3.8c0.1,4.2-3.3,4.2-6.5,4.2c-27.6,0-55.2,0-82.8,0
		c-3,0-6.2,0-6.3-3.8c-0.1-4.2,3.3-4.2,6.5-4.2C84.8,12.1,98.7,12.1,112.7,12.1z"/>
	<path class="st1" d="M112.1,32.1c-6.1,0-12.3,0-18.4,0c-3,0-5.6-0.8-5.4-4.2c0.1-3.1,2.6-3.8,5.4-3.8c12.3,0,24.6,0,36.9,0
		c3,0,5.6,0.8,5.4,4.2c-0.1,3.1-2.6,3.8-5.4,3.8C124.4,32,118.3,32.1,112.1,32.1z"/>
	<path class="st3" d="M188,72.1c1.7,16,3.4,32,5,48c1.9,18.3,3.7,36.7,5.5,55c0.6,5.6,0.9,11.2,1.4,16.9c-58.6,0-117.2,0-175.7,0
		c1.1-12.4,2.2-24.7,3.4-37.1c1.4-14.8,3-29.6,4.5-44.5c1.1-11.7,2.1-23.4,3.2-35.1c0.5-3.4,3-3.2,5.5-3.2
		C89.9,72.1,139,72.1,188,72.1z"/>
	<path class="st4" d="M72,216c-1.8,0-3.7-0.2-5.5,0c-5.1,0.8-6.6-1-6.6-6.3c0-5,1.5-6.2,6.2-5.8c4.8,0.4,9.6,0.2,14.4,0
		c2.8-0.1,3.7,0.7,3.7,3.6c0.1,8.5,0.3,8.5-8.2,8.5C74.6,216,73.3,216,72,216z"/>
	<path class="st4" d="M111.8,216c-2,0-4-0.3-5.9,0.1c-5,0.8-5.9-1.3-5.9-6c-0.1-5,1.2-6.7,6.3-6.2c4.8,0.5,9.6,0.2,14.4,0.1
		c2.4-0.1,3.5,0.4,3.6,3.2c0.3,8.8,0.5,8.8-8.4,8.8C114.5,216,113.1,216,111.8,216z"/>
	<path class="st4" d="M151.9,216c-1.8,0-3.7-0.2-5.5,0c-5.1,0.8-6.6-1-6.6-6.3c0-5,1.5-6.2,6.2-5.8c4.8,0.4,9.6,0.2,14.4,0
		c2.8-0.1,3.7,0.7,3.7,3.6c0.1,8.5,0.3,8.5-8.2,8.5C154.6,216,153.3,216,151.9,216z"/>
	<path class="st5" d="M128.2,104.1c2.4-5.2,4.3-9,6-12.9c0.9-2.1,2.2-3.4,4.5-3c2.2,0.4,3.4,1.9,3.4,4.2c0,10.3,0,20.6,0,30.9
		c0,2.7-1.3,4.6-4.1,4.5c-2.9-0.1-3.9-2.2-3.8-4.8c0-4,0-7.9,0-12.7c-2.2,2.2-2.7,5.5-5.8,5.6c-3.5,0.1-3.8-3.2-6.2-5.9
		c0,4.8,0,8.8,0,12.8c0,2.9-1.1,5.1-4.2,4.9c-2.9-0.1-3.8-2.3-3.8-4.9c0-10,0-20,0-29.9c0-2.4,0.7-4.4,3.3-4.8
		c2.6-0.5,3.8,1.1,4.8,3.4C123.8,95.4,125.7,99,128.2,104.1z"/>
	<path class="st5" d="M148.1,160.6c0,3.4,0,6.9,0,10.3c0,2.9-1,5.1-4.2,5c-2.9-0.1-3.8-2.2-3.8-4.9c0-10,0-20,0-30
		c0-3.2,1.4-5.1,4.7-5c3.3,0.1,6.7-0.3,9.9,0.4c9.1,2,12.6,13,6,19.5c-2.9,2.9-2.5,4.8-0.9,7.6c1.2,2,2.2,4.1,3,6.3
		c0.9,2.5,0.3,4.8-2.3,5.8c-2.4,0.9-3.5-1.1-4.5-2.9C153.7,168.7,152.2,164.1,148.1,160.6z"/>
	<path class="st5" d="M82.1,156c0,2.7,0.1,5.3,0,8c-0.3,7-5.5,12.1-12.1,12c-6.5-0.1-11.5-5-11.8-11.8c-0.2-5.5-0.2-11,0-16.5
		c0.3-6.8,5.4-11.7,11.8-11.7c6.7-0.1,11.8,5,12.1,12C82.2,150.7,82.1,153.4,82.1,156z"/>
	<path class="st5" d="M56.2,107.9c0-2.8-0.2-5.7,0-8.5c0.5-6.3,5.1-10.9,11.2-11.3c6-0.4,11.5,3.9,12.5,9.9c0.5,2.7,0.1,5.2-3,5.9
		c-2.8,0.6-4.4-1-4.8-3.8c-0.4-2.7-1.9-4.3-4.7-3.9c-2.6,0.4-3.3,2.4-3.3,4.8c0,4.8-0.1,9.6,0.1,14.4c0.1,3.8,3.3,5.7,6,3.9
		c1.4-1,2.9-2.2,0.3-3.7c-2.1-1.3-3.1-3.1-1.8-5.5c1.6-2.9,4.6-2.1,7.2-2.1c2.3,0,3.9,1.2,4.1,3.5c0.5,5.1,0.2,10.1-4.2,13.6
		c-4,3.2-8.5,3.8-13,1.5c-4.8-2.4-6.7-6.6-6.6-11.9C56.2,112.5,56.1,110.2,56.2,107.9C56.2,107.9,56.2,107.9,56.2,107.9z"/>
	<path class="st5" d="M82.1,123.1c0.1-0.5,0.3-1.3,0.6-2.1c2.9-9.5,5.9-19,8.9-28.5c0.7-2.3,1.8-4.4,4.7-4.4
		c2.7,0.1,3.6,2.1,4.3,4.2c3.1,9.8,6.2,19.6,9.2,29.5c0.8,2.7,0.4,5.2-2.6,6.1c-2.7,0.8-4.7-0.9-5.2-3.4c-0.7-3.7-2.7-4.4-6.2-4.5
		c-3.8-0.2-4.8,1.8-5.6,4.7c-0.7,2.3-2.3,3.8-4.9,3.3C83,127.4,82.1,125.6,82.1,123.1z"/>
	<path class="st5" d="M98.8,155.7c1.5-4.9,2.9-9.8,4.5-14.7c0.9-2.8,2.2-5.8,5.8-4.7c3.5,1.1,3.2,4,2.2,7.1
		c-3,9.3-5.8,18.7-8.7,28.1c-0.7,2.3-1.7,4.5-4.6,4.5c-2.9,0-3.9-2.3-4.6-4.5c-3-9.5-5.9-19-8.9-28.6c-0.9-2.9-0.9-5.5,2.4-6.6
		c3.4-1.1,4.8,1.5,5.7,4.1c1.7,5.1,3.3,10.3,4.9,15.5C98,155.8,98.4,155.8,98.8,155.7z"/>
	<path class="st5" d="M146.1,108.1c0-4.8,0.1-9.7,0-14.5c-0.1-4.1,1.7-5.8,5.7-5.6c3.3,0.1,6.7,0,10,0.1c2.5,0.1,4.2,1.4,4.2,3.9
		c0,2.6-1.7,3.8-4.2,4c-1,0.1-2,0-3,0c-2.1,0.1-4.9-0.9-4.8,3.1c0.1,2.8-0.3,5.3,3.9,5c2.5-0.2,4.1,1.5,4,4.1
		c-0.1,2.3-1.7,3.9-3.9,3.7c-4.6-0.4-4,2.6-4,5.4c0,3.7,2.7,2.5,4.6,2.7c1.2,0.1,2.3,0,3.5,0.1c2.3,0.2,3.7,1.5,3.8,3.8
		c0.1,2.3-1.3,3.9-3.6,4c-4.1,0.2-8.3,0.2-12.5,0c-2.9-0.1-3.8-2.2-3.8-4.9C146.1,118.1,146.1,113.1,146.1,108.1z"/>
	<path class="st5" d="M116.1,155.7c0-4.8,0.1-9.6,0-14.5c-0.1-3.5,1.4-5.3,5-5.2c3.5,0.1,7,0,10.5,0c2.5,0,4.3,1.2,4.4,3.8
		c0.1,2.9-1.8,4.1-4.5,4.2c-1,0-2,0-3,0c-2.1,0.1-4.6-0.7-4.4,2.9c0.1,2.6-0.7,5.5,3.8,5.1c2.5-0.2,4.2,1.4,4.1,3.9
		c0,2.6-1.8,4.1-4.2,3.9c-4.5-0.4-3.5,2.7-3.7,5.2c-0.2,3.7,2.5,2.7,4.4,2.9c1.3,0.1,2.7-0.1,4,0.1c2,0.3,3.4,1.6,3.5,3.6
		c0.1,2.3-1.2,4-3.5,4.1c-4.3,0.2-8.7,0.3-13,0c-2.6-0.2-3.5-2.2-3.5-4.7C116.1,166,116.1,160.9,116.1,155.7z"/>
	<path class="st6" d="M148.1,148c-0.3-2.4,0-4.3,3.2-4c2.7,0.2,4.6,1.2,4.6,4c0,2.9-2,3.8-4.6,4C148,152.3,147.9,150.4,148.1,148z"
		/>
	<path class="st7" d="M66.2,155.6c0-2.5-0.1-5,0-7.5c0.1-2.5,1.5-4.1,4.1-4c2.3,0.1,3.7,1.6,3.7,3.9c0.1,5.3,0.1,10.6,0,15.9
		c-0.1,2.5-1.5,4.1-4.1,4c-2.3-0.1-3.6-1.6-3.7-3.9C66.1,161.2,66.2,158.4,66.2,155.6z"/>
	<path class="st8" d="M96.2,106.2c0.6,2.8,2.4,4.1,0.7,5.7c-0.3,0.3-1.6,0.3-1.9,0C93.7,110.2,95.2,108.9,96.2,106.2z"/>
</g>
</svg>
