<?xml version="1.0" encoding="utf-8"?>
<!-- Generator: Adobe Illustrator 26.3.1, SVG Export Plug-In . SVG Version: 6.00 Build 0)  -->
<svg version="1.1" id="Capa_1" xmlns="http://www.w3.org/2000/svg" xmlns:xlink="http://www.w3.org/1999/xlink" x="0px" y="0px"
	 viewBox="0 0 40 40" style="enable-background:new 0 0 40 40;" xml:space="preserve">
<style type="text/css">
	.st0{fill:#FFFFFF;}
</style>
<path class="st0" d="M7.1,26.9c0,0,0,0,0-0.1L9.8,24h14.1h0.1c0.5,0,0.9-0.3,1.2-0.8l2.3-4.9c0.7,0.2,1.5,0.3,2.3,0.3
	c4.3,0,7.8-3.5,7.8-7.8S34.1,3,29.8,3c-4,0-7.2,3-7.8,6.8c0,0,0,0,0,0H8.2L7.8,8c-0.1-0.7-0.7-1-1.3-1H3.7c-0.8,0-1.3,0.5-1.3,1.3
	s0.5,1.3,1.3,1.3h1.8l0.3,1.8L8,22.2l-2.7,2.9c-1.7,1.7-0.5,4.7,2,4.7h4.7c-0.3,0.3-0.5,0.6-0.7,0.9c-0.1,0.3-0.1,0.4-0.1,0.7v2.9
	c0,0.3,0,0.4,0.1,0.7c0.9,1.7,2.9,2.5,4.7,2c1.8-0.5,3.1-2.1,3.1-4.1c0-1.2-0.5-2.2-1.3-3h5.7l2.5,2.5c0.3,0.3,0.5,0.4,0.9,0.4
	c2.4,0,4.2-1.8,4.2-4.2s-1.8-4.2-4.2-4.2c-1.9,0-3.4,1.2-4,2.9H7.2H7.1c0,0,0,0,0-0.1C7.1,27,7.1,27,7.1,26.9z M26.3,9.5h2.1V7.4
	c0-0.8,0.5-1.3,1.3-1.3S31,6.7,31,7.4v2.1h2.1c0.6,0,1,0.3,1.1,0.7c0.1,0.2,0.1,0.5-0.1,0.6c-0.1,0.6-0.7,1-1.3,1h-2.1V14
	c0,0.8-0.5,1.3-1.3,1.3c-0.2,0-0.5,0-0.9-0.3l-0.2-0.2c0,0-0.1-0.5-0.1-0.7V12h-2.1c-0.2,0-0.5,0-0.9-0.3l-0.2-0.2
	c0,0-0.1-0.5-0.1-0.7C25,10.1,25.5,9.5,26.3,9.5z M22.1,12.4c0.4,2,1.5,3.6,3.1,4.8l-2.1,4.2H10.5l-1.8-9H22.1z M26.9,26.9
	c0.9,0,1.6,0.7,1.6,1.6c0,0.8-0.5,1.3-1.1,1.5L25.4,28C25.6,27.4,26.2,26.9,26.9,26.9z M13.7,31.7c0.4-0.4,0.9-0.6,1.6-0.5
	c0.7,0.1,1.2,0.8,1.2,1.6c0,0.7-0.5,1.3-1.2,1.6c-0.5,0.1-1.1-0.1-1.6-0.5V31.7z"/>
</svg>
