<?xml version="1.0" encoding="utf-8"?>
<!-- Generator: Adobe Illustrator 26.3.1, SVG Export Plug-In . SVG Version: 6.00 Build 0)  -->
<svg version="1.1" id="Capa_1" xmlns="http://www.w3.org/2000/svg" xmlns:xlink="http://www.w3.org/1999/xlink" x="0px" y="0px"
	 viewBox="0 0 123.4 20" style="enable-background:new 0 0 123.4 20;" xml:space="preserve">
<style type="text/css">
	.st0{fill:#F2CB1F;}
	.st1{fill:#5394CC;}
	.st2{fill:#FFFFFF;}
</style>
<g>
	<path class="st0" d="M30.3,16c-0.8,0-1.6-0.2-2.3-0.5c-0.7-0.3-1.3-0.7-1.9-1.3c-0.5-0.5-1-1.2-1.3-1.9s-0.5-1.5-0.5-2.3
		s0.2-1.6,0.5-2.3s0.7-1.3,1.3-1.9c0.5-0.5,1.2-1,1.9-1.3C28.7,4.2,29.5,4,30.3,4c0.5,0,1,0.1,1.5,0.2s0.9,0.3,1.3,0.5
		c0.2,0.1,0.3,0.2,0.4,0.4c0.1,0.1,0.1,0.3,0.1,0.4c0,0.3-0.1,0.5-0.3,0.7s-0.4,0.3-0.7,0.3c-0.1,0-0.2,0-0.3,0
		c0,0.1-0.1,0.1-0.2,0.1c-0.3-0.1-0.6-0.2-0.9-0.3c-0.3-0.1-0.6-0.1-1-0.1c-0.7,0-1.4,0.2-1.9,0.5c-0.6,0.4-1,0.8-1.4,1.4
		s-0.5,1.2-0.5,2c0,0.7,0.2,1.4,0.5,2s0.8,1.1,1.4,1.4c0.6,0.4,1.2,0.5,1.9,0.5c0.3,0,0.7,0,1.1-0.1s0.7-0.2,1-0.3l-0.1,0.5v-2.8
		l0.3,0.2h-1.8c-0.3,0-0.5-0.1-0.7-0.3s-0.3-0.4-0.3-0.7S29.8,10,30,9.8c0.2-0.2,0.4-0.3,0.7-0.3h2.7c0.3,0,0.5,0.1,0.7,0.3
		s0.3,0.4,0.3,0.7V14c0,0.2-0.1,0.4-0.2,0.5c-0.1,0.1-0.2,0.3-0.4,0.3c-0.5,0.3-1,0.5-1.6,0.7C31.6,15.9,31,16,30.3,16z"/>
	<path class="st0" d="M40.5,7L37,15.3c-0.1,0.2-0.2,0.4-0.4,0.5S36.3,16,36.1,16c-0.3,0-0.5-0.1-0.7-0.2c-0.1-0.2-0.2-0.4-0.2-0.6
		c0-0.1,0-0.2,0-0.3l4.1-9.8c0.1-0.2,0.2-0.4,0.4-0.5s0.4-0.2,0.6-0.1c0.2,0,0.4,0.1,0.5,0.2C41,4.6,41.1,4.8,41.2,5l4,9.6
		c0.1,0.1,0.1,0.3,0.1,0.4c0,0.3-0.1,0.5-0.3,0.7S44.6,16,44.4,16c-0.2,0-0.4-0.1-0.5-0.2c-0.2-0.1-0.3-0.3-0.4-0.5L40,7.1L40.5,7z
		 M37.5,13.3l0.9-1.9h4.4l0.3,1.9H37.5z"/>
	<path class="st0" d="M47.7,4.4c0.2,0,0.3,0,0.5,0.1s0.3,0.2,0.4,0.3l4,6.1h-0.8l4.1-6.1c0.2-0.3,0.5-0.4,0.8-0.4s0.5,0.1,0.7,0.3
		c0.2,0.2,0.3,0.4,0.3,0.7v9.5c0,0.3-0.1,0.5-0.3,0.7s-0.4,0.3-0.7,0.3s-0.6-0.1-0.7-0.3c-0.2-0.2-0.3-0.4-0.3-0.7V7.1l0.6,0.1
		L53,12.3c-0.1,0.1-0.2,0.2-0.4,0.3c-0.1,0.1-0.3,0.1-0.4,0.1c-0.1,0-0.3,0-0.4-0.1c-0.1-0.1-0.3-0.2-0.4-0.3l-3.1-4.9l0.3-0.8v8.3
		c0,0.3-0.1,0.5-0.3,0.7s-0.4,0.3-0.7,0.3s-0.5-0.1-0.7-0.3s-0.3-0.4-0.3-0.7V5.4c0-0.3,0.1-0.5,0.3-0.7C47.2,4.5,47.5,4.4,47.7,4.4
		z"/>
	<path class="st0" d="M61.1,4.4h5.5c0.3,0,0.5,0.1,0.7,0.3s0.3,0.4,0.3,0.7c0,0.3-0.1,0.5-0.3,0.7c-0.2,0.2-0.4,0.3-0.7,0.3H62
		l0.1-0.3v3.2L62,9.1h3.8c0.3,0,0.5,0.1,0.7,0.3s0.3,0.4,0.3,0.7s-0.1,0.5-0.3,0.7c-0.2,0.2-0.4,0.3-0.7,0.3H62l0.1-0.1v3.3L62,13.9
		h4.6c0.3,0,0.5,0.1,0.7,0.3s0.3,0.4,0.3,0.7s-0.1,0.5-0.3,0.7c-0.2,0.2-0.4,0.3-0.7,0.3h-5.5c-0.3,0-0.5-0.1-0.7-0.3
		s-0.3-0.4-0.3-0.7V5.4c0-0.3,0.1-0.5,0.3-0.7C60.6,4.5,60.8,4.4,61.1,4.4z"/>
</g>
<g>
	<path class="st1" d="M75.4,15.8c-0.8,0-1.4-0.1-2.1-0.3c-0.6-0.2-1.2-0.5-1.7-1c-0.1-0.1-0.3-0.3-0.3-0.4c-0.1-0.2-0.1-0.3-0.1-0.5
		c0-0.3,0.1-0.5,0.3-0.7c0.2-0.2,0.4-0.3,0.7-0.3c0.2,0,0.4,0.1,0.6,0.2c0.4,0.3,0.8,0.6,1.2,0.8c0.4,0.2,0.9,0.3,1.5,0.3
		c0.4,0,0.8-0.1,1.1-0.2c0.3-0.1,0.6-0.3,0.8-0.5c0.2-0.2,0.3-0.5,0.3-0.7c0-0.3-0.1-0.6-0.3-0.8c-0.2-0.2-0.5-0.4-0.9-0.6
		c-0.4-0.2-0.9-0.3-1.5-0.4c-0.6-0.1-1.1-0.2-1.6-0.4c-0.4-0.2-0.8-0.4-1.1-0.7c-0.3-0.3-0.5-0.6-0.7-1s-0.2-0.8-0.2-1.3
		c0-0.7,0.2-1.3,0.5-1.8c0.4-0.5,0.9-0.9,1.5-1.1C74,4.1,74.7,4,75.5,4c0.7,0,1.4,0.1,2,0.3c0.6,0.2,1.1,0.5,1.5,0.8
		c0.3,0.3,0.5,0.5,0.5,0.9c0,0.2-0.1,0.5-0.3,0.7C79,6.9,78.8,7,78.5,7c-0.2,0-0.3,0-0.4-0.1c-0.2-0.2-0.4-0.3-0.7-0.4
		s-0.6-0.3-0.9-0.3c-0.3-0.1-0.6-0.1-0.9-0.1c-0.5,0-0.9,0.1-1.2,0.2c-0.3,0.1-0.6,0.3-0.7,0.5c-0.2,0.2-0.2,0.4-0.2,0.7
		c0,0.3,0.1,0.6,0.3,0.8c0.2,0.2,0.5,0.4,0.8,0.5C75,8.9,75.4,9,75.9,9.1c0.7,0.1,1.2,0.3,1.7,0.4c0.5,0.2,0.9,0.4,1.2,0.6
		c0.3,0.3,0.6,0.6,0.7,1c0.2,0.4,0.2,0.9,0.2,1.4c0,0.7-0.2,1.3-0.6,1.8s-0.9,0.9-1.5,1.2C76.8,15.7,76.2,15.8,75.4,15.8z"/>
	<path class="st1" d="M81.7,6.1c-0.3,0-0.5-0.1-0.7-0.3c-0.2-0.2-0.3-0.4-0.3-0.7c0-0.3,0.1-0.5,0.3-0.7c0.2-0.2,0.4-0.3,0.7-0.3H89
		c0.3,0,0.5,0.1,0.7,0.3C89.9,4.6,90,4.9,90,5.1c0,0.3-0.1,0.5-0.3,0.7C89.5,6,89.3,6.1,89,6.1H81.7z M85.4,15.6
		c-0.3,0-0.6-0.1-0.8-0.3c-0.2-0.2-0.3-0.4-0.3-0.7V5.2h2.1v9.5c0,0.3-0.1,0.5-0.3,0.7C85.9,15.5,85.7,15.6,85.4,15.6z"/>
	<path class="st1" d="M101.9,9.9c0,0.8-0.1,1.6-0.4,2.3s-0.7,1.3-1.2,1.9c-0.5,0.5-1.1,1-1.8,1.3c-0.7,0.3-1.4,0.5-2.2,0.5
		c-0.8,0-1.5-0.2-2.2-0.5s-1.3-0.7-1.8-1.3c-0.5-0.5-0.9-1.2-1.2-1.9c-0.3-0.7-0.4-1.5-0.4-2.3s0.1-1.6,0.4-2.3s0.7-1.3,1.2-1.9
		c0.5-0.5,1.1-1,1.8-1.3c0.7-0.3,1.4-0.5,2.2-0.5c0.8,0,1.5,0.2,2.2,0.5c0.7,0.3,1.3,0.7,1.8,1.3c0.5,0.5,0.9,1.2,1.2,1.9
		C101.8,8.3,101.9,9.1,101.9,9.9z M99.8,9.9c0-0.7-0.1-1.4-0.4-2s-0.7-1.1-1.2-1.4S97.1,6,96.4,6c-0.7,0-1.3,0.2-1.8,0.5
		s-0.9,0.8-1.2,1.4c-0.3,0.6-0.4,1.3-0.4,2s0.1,1.4,0.4,2s0.7,1.1,1.2,1.4c0.5,0.3,1.1,0.5,1.8,0.5c0.7,0,1.3-0.2,1.8-0.5
		s0.9-0.8,1.2-1.4C99.6,11.3,99.8,10.6,99.8,9.9z"/>
	<path class="st1" d="M104.9,15.6c-0.3,0-0.6-0.1-0.8-0.3c-0.2-0.2-0.4-0.4-0.4-0.7V5.2c0-0.3,0.1-0.5,0.3-0.7
		c0.2-0.2,0.4-0.3,0.7-0.3h4.7c0.6,0,1.1,0.1,1.6,0.4s0.9,0.7,1.2,1.2c0.3,0.5,0.5,1.1,0.5,1.8c0,0.4-0.1,0.8-0.3,1.2
		c-0.2,0.4-0.4,0.7-0.7,1.1c-0.3,0.3-0.6,0.6-1,0.7v-0.4c0.3,0.2,0.6,0.4,0.8,0.6c0.2,0.2,0.4,0.5,0.5,0.7c0.1,0.3,0.2,0.5,0.2,0.8
		s0.1,0.5,0.1,0.7s0,0.4,0.1,0.5c0,0.1,0.1,0.3,0.3,0.3c0.2,0.1,0.4,0.3,0.4,0.6c0.1,0.3,0,0.5-0.2,0.7c-0.1,0.1-0.3,0.2-0.5,0.3
		c-0.2,0-0.4,0-0.6,0s-0.3-0.1-0.5-0.2c-0.2-0.1-0.4-0.3-0.6-0.5s-0.3-0.5-0.4-0.9s-0.2-0.8-0.2-1.4c0-0.2,0-0.4-0.1-0.5
		c-0.1-0.2-0.2-0.3-0.3-0.4c-0.1-0.1-0.3-0.2-0.5-0.3s-0.4-0.1-0.7-0.1h-3.3l0.2-0.4v3.5c0,0.3-0.1,0.5-0.2,0.7
		C105.4,15.5,105.2,15.6,104.9,15.6z M105.6,9.8h3.8c0.2,0,0.4-0.1,0.6-0.3s0.3-0.4,0.5-0.7c0.1-0.3,0.2-0.7,0.2-1
		c0-0.5-0.1-0.9-0.4-1.2c-0.3-0.3-0.5-0.5-0.8-0.5h-3.8l0.2-0.5v4.6L105.6,9.8z"/>
	<path class="st1" d="M116,4.2h5.5c0.3,0,0.5,0.1,0.7,0.3s0.3,0.4,0.3,0.7c0,0.3-0.1,0.5-0.3,0.7c-0.2,0.2-0.4,0.3-0.7,0.3h-4.6
		l0.1-0.3v3.2L116.9,9h3.8c0.3,0,0.5,0.1,0.7,0.3s0.3,0.4,0.3,0.7s-0.1,0.5-0.3,0.7c-0.2,0.2-0.4,0.3-0.7,0.3h-3.8l0.1-0.1v3.3
		l-0.1-0.1h4.6c0.3,0,0.5,0.1,0.7,0.3s0.3,0.4,0.3,0.7s-0.1,0.5-0.3,0.7c-0.2,0.2-0.4,0.3-0.7,0.3H116c-0.3,0-0.5-0.1-0.7-0.3
		s-0.3-0.4-0.3-0.7V5.2c0-0.3,0.1-0.5,0.3-0.7C115.5,4.3,115.7,4.2,116,4.2z"/>
</g>
<path class="st1" d="M10.1,19.9c-2.6,0-5.2,0-7.8,0c-1.3,0-2.1-0.9-2.1-2.1c0-5.2,0-10.3,0-15.5c0-1.3,0.9-2.1,2.1-2.1
	c5.2,0,10.3,0,15.5,0C19.1,0.1,20,1,20,2.2c0,5.2,0,10.4,0,15.6c0,1.2-0.9,2.1-2.1,2.1C15.3,19.9,12.7,19.9,10.1,19.9z"/>
<g>
	<path class="st2" d="M5.6,9c0,1.6,0,3.2,0,4.8c0,0.6,0.1,0.7,0.7,0.7c0.4,0,0.6,0.1,0.5,0.5c0,1.7,0.1,1.6-1.4,1.6
		c-1,0-1.8,0-2.8,0c-0.6,0-0.7-0.1-0.7-0.7c0-0.1,0-0.4,0-0.5c0-0.7,0-0.7,0.7-0.8c0.4,0,0.5-0.2,0.5-0.5c0-2.4,0-4.8,0-7.1
		c0-0.4-0.1-0.5-0.5-0.6C1.9,6.4,2,6.3,1.9,5.7c-0.1-1.1,0.6-1.4,1.2-2c0.1-0.1,0.4-0.1,0.5-0.1c0.5,0,1,0,1.4,0
		c0.4,0,0.6,0.1,0.6,0.6C5.6,5.8,5.6,7.5,5.6,9z"/>
	<path class="st2" d="M12.9,12.5c-1.6,0-3.1,0-4.7,0c-0.6,0-0.6-0.1-0.6-0.6c0-0.1,0-0.2,0-0.2c0-0.6,0.1-0.7,0.7-0.7
		c3.1,0,6.1,0,9.3,0c0.6,0,0.7,0.1,0.7,0.7c0,0.1,0,0.2,0,0.4c0,0.6-0.1,0.6-0.6,0.6C16.2,12.5,14.6,12.5,12.9,12.5z"/>
	<path class="st2" d="M14.3,6.4c0-0.7,0-1.6,0-2.3c0-0.5,0.2-0.6,0.6-0.6c0.8,0,1.7,0,2.5,0c0.6,0,1,0.4,1,1c0,0.5,0,1,0,1.4
		c0,0.6-0.4,1-1,1c-0.4,0-0.7,0-1.1,0c-0.2,0-0.4,0.1-0.4,0.4c0,0.5,0,1,0,1.4c0,0.4-0.1,0.6-0.6,0.6c-1.1,0-1.1,0-1.1-1.1
		C14.3,7.6,14.3,7,14.3,6.4z M16.2,5.5c0.2,0,0.4,0,0.5,0c0.2,0,0.4-0.1,0.4-0.4c0-0.2-0.1-0.4-0.5-0.4c-0.1,0-0.2,0-0.4,0
		c-0.4,0-0.7-0.1-0.7,0.4C15.5,5.7,15.9,5.5,16.2,5.5z"/>
	<path class="st2" d="M12.6,6.1c0,0.6,0,1.3,0,1.9c0,0.8-0.5,1.3-1.3,1.3c-0.7,0-1.6,0-2.3,0c-0.7,0-1.2-0.5-1.2-1.2
		c0-1.3,0-2.6,0-4c0-0.4,0.2-0.6,0.6-0.6c0.1,0,0.4,0,0.5,0c0.5,0,0.6,0.2,0.6,0.6c0,1,0,1.9,0,2.9c-0.1,0.5,0,0.6,0.5,0.6
		c0.1,0,0.2,0,0.4,0c0.5,0,0.6-0.1,0.6-0.6c0-1,0-1.9,0-2.9c0-0.6,0.1-0.6,0.6-0.6c0.1,0,0.2,0,0.4,0c0.4,0,0.6,0.1,0.6,0.6
		C12.6,4.8,12.6,5.4,12.6,6.1z"/>
</g>
</svg>
