<?xml version="1.0" encoding="utf-8"?>
<!-- Generator: Adobe Illustrator 26.3.1, SVG Export Plug-In . SVG Version: 6.00 Build 0)  -->
<svg version="1.1" id="Capa_1" xmlns="http://www.w3.org/2000/svg" xmlns:xlink="http://www.w3.org/1999/xlink" x="0px" y="0px"
	 viewBox="0 0 16 16" style="enable-background:new 0 0 16 16;" xml:space="preserve">
<g transform="translate(0.000000,512.000000) scale(0.100000,-0.100000)">
	<path d="M13.2,5119.1c-5.9-1.4-10.8-6.4-12.2-12.3c-0.7-3-0.7-130.5,0-133.5c1.4-6.1,6.5-11.1,12.5-12.4c3.1-0.7,129.9-0.7,133.1,0
		c6.1,1.3,11.2,6.4,12.5,12.5c0.7,3.1,0.7,129.9,0,133c-1.3,6.1-6.3,11.1-12.3,12.5c-1.7,0.4-10.1,0.5-66.9,0.4
		C25.6,5119.5,14.6,5119.4,13.2,5119.1z M44.9,5088.7l0.9-0.9v-39.9v-40l1-1c0.9-0.9,1.2-1,3.7-1c2.4,0,2.8-0.1,3.5-0.8
		c1.1-1.1,1.4-2.5,1.1-8.2c-0.1-4.8-0.1-4.9-1.1-5.7l-1-0.8H36.3H19.5l-0.8,0.9c-0.8,0.9-0.8,1-0.8,6.9v6l1,0.8
		c0.8,0.8,1.4,0.8,3.6,0.8s2.7,0.1,3.6,0.8l1,0.8v29.3v29.3l-0.8,0.9c-0.8,0.8-1.1,0.9-3.3,0.9c-4.8,0-5.3,0.9-5.1,7.9l0.1,4.9
		l4.6,4.5l4.6,4.5H36h8.5L44.9,5088.7z M72.8,5088.9l1-0.8l0.1-13.4c0-7.4,0.1-13.7,0.2-14.1c0.3-1.4,1.9-1.8,5.8-1.8
		c3.9,0,5.4,0.5,5.8,1.8c0.1,0.5,0.2,6.8,0.2,14.1l0.1,13.4l1,0.8c0.9,0.8,1.2,0.8,5.4,0.8s4.4,0,5.2-0.9l0.9-0.8v-17.2v-17.1
		l-0.8-1.8c-1-2.2-2.6-3.7-4.8-4.9c-1.6-0.8-1.9-0.8-13-0.8c-11,0-11.6,0-13,0.8c-2,1-3.9,2.7-4.8,4.9l-0.8,1.8v17.2v17.2l0.9,0.8
		c0.8,0.8,1,0.9,5.2,0.9C71.6,5089.7,71.9,5089.7,72.8,5088.9z M138.7,5089.2c1.4-0.7,2.7-2.4,3.2-4c0.2-0.7,0.3-4.4,0.3-8.1
		c0-7.3-0.2-8.5-1.8-10.2c-1.7-1.8-2.4-1.9-9.9-2.2l-7-0.1v-8.1v-8.1l-1-1.1l-1-1.1h-4.1c-4.4,0-5.6,0.3-6.2,1.8
		c-0.2,0.6-0.3,6.8-0.3,20.2v19.3l0.9,1.1l0.9,1.1h12.5C135.5,5089.7,137.9,5089.5,138.7,5089.2z M141.3,5032.6l1-1.1l-0.1-4.2
		c-0.1-4.1-0.1-4.2-1.1-5.1l-1-0.8h-38.3H63.3l-1,1c-1,1-1,1.1-1,5.1c0,2.3,0.2,4.4,0.3,4.8c0.9,1.8,0,1.7,40.6,1.6l38-0.1
		L141.3,5032.6z"/>
	<path d="M122.7,5080.2c-1-0.2-2.3-1.7-2.3-2.9c0-0.6,0.3-1.5,0.8-1.9c0.8-0.9,0.9-1,4.9-1.1c4.4-0.1,5.4,0.2,6.2,1.8
		c0.7,1.5,0.1,3.1-1.4,3.9c-0.9,0.5-2,0.7-4.4,0.6C124.9,5080.5,123.1,5080.4,122.7,5080.2z"/>
</g>
</svg>
