<?xml version="1.0" encoding="utf-8"?>
<!-- Generator: Adobe Illustrator 26.2.1, SVG Export Plug-In . SVG Version: 6.00 Build 0)  -->
<svg version="1.1" id="Capa_1" xmlns="http://www.w3.org/2000/svg" xmlns:xlink="http://www.w3.org/1999/xlink" x="0px" y="0px"
	 viewBox="0 0 16 16" style="enable-background:new 0 0 16 16;" xml:space="preserve">
<g transform="translate(0.000000,512.000000) scale(0.100000,-0.100000)">
	<path d="M13.2,5119.1c-5.9-1.4-10.8-6.4-12.2-12.3c-0.7-3-0.7-130.5,0-133.5c1.4-6.1,6.5-11.1,12.5-12.4c3.1-0.7,129.9-0.7,133.1,0
		c6.1,1.3,11.2,6.4,12.5,12.5c0.7,3.1,0.7,129.9,0,133c-1.3,6.1-6.3,11.1-12.3,12.5c-1.7,0.4-10.1,0.5-66.9,0.4
		C25.6,5119.5,14.6,5119.4,13.2,5119.1z M23,5105.4c3.8-1.1,5.8-5.5,4.1-9.2c-0.8-1.9-1.4-2.5-3.2-3.3c-6.7-3.2-12.8,5.2-7.8,10.7
		c0.7,0.9,2.1,1.6,3.4,2C21,5106,21.4,5105.9,23,5105.4z M142,5105c5.2-2.6,4.9-10.1-0.5-12.4c-5.4-2.3-11.2,3.7-8.7,9
		C134.4,5105.2,138.6,5106.8,142,5105z M49.1,5083l0.8-0.8V5047v-35.3l0.9-0.9c0.8-0.8,1.1-0.9,3.3-0.9c2.1,0,2.5-0.1,3.1-0.7
		c1-1,1.2-2.2,1-7.2c-0.1-4.2-0.1-4.3-1-5l-0.9-0.7H41.5H26.7l-0.7,0.8c-0.7,0.8-0.7,0.9-0.7,6.1v5.3l0.9,0.7
		c0.7,0.7,1.2,0.7,3.2,0.7s2.4,0.1,3.2,0.7l0.9,0.7v25.8v25.8l-0.7,0.8c-0.7,0.7-1,0.8-2.9,0.8c-4.2,0-4.7,0.8-4.5,7l0.1,4.3l4.1,4
		l4.1,4h7.5h7.5L49.1,5083z M73.7,5083.1l0.9-0.7l0.1-11.8c0-6.5,0.1-12.1,0.2-12.4c0.3-1.2,1.7-1.6,5.1-1.6s4.8,0.4,5.1,1.6
		c0.1,0.4,0.2,6,0.2,12.4l0.1,11.8l0.9,0.7c0.8,0.7,1.1,0.7,4.8,0.7c3.7,0,3.9,0,4.6-0.8l0.8-0.7v-15.2V5052l-0.7-1.6
		c-0.9-1.9-2.3-3.3-4.2-4.3c-1.4-0.7-1.7-0.7-11.5-0.7c-9.7,0-10.2,0-11.5,0.7c-1.8,0.9-3.4,2.4-4.2,4.3l-0.7,1.6v15.2v15.2l0.8,0.7
		c0.7,0.7,0.9,0.8,4.6,0.8C72.6,5083.8,72.9,5083.8,73.7,5083.1z M131.8,5083.4c1.2-0.6,2.4-2.1,2.8-3.5c0.2-0.6,0.3-3.9,0.3-7.1
		c0-6.4-0.2-7.5-1.6-9c-1.5-1.6-2.1-1.7-8.7-1.9l-6.2-0.1v-7.1v-7.1l-0.9-1l-0.9-1h-3.6c-3.9,0-4.9,0.3-5.5,1.6
		c-0.2,0.5-0.3,6-0.3,17.8v17l0.8,1l0.8,1h11C129,5083.8,131.1,5083.7,131.8,5083.4z M134.1,5033.5l0.9-1l-0.1-3.7
		c-0.1-3.6-0.1-3.7-1-4.5l-0.9-0.7H99.2H65.3l-0.9,0.9c-0.9,0.9-0.9,1-0.9,4.5c0,2,0.2,3.9,0.3,4.2c0.8,1.6,0,1.5,35.8,1.4l33.5-0.1
		L134.1,5033.5z M23.3,4987.5c3.4-1,5.5-5.5,4.1-8.9c-1.6-3.7-5.8-5.3-9.3-3.5c-4.1,2-5,7.5-1.8,10.7
		C18.3,4987.8,20.5,4988.3,23.3,4987.5z M141.4,4987.4c3.7-1.6,5.3-5.8,3.5-9.3c-2-4.1-7.5-5-10.7-1.8c-2.8,2.9-2.8,6.9-0.1,9.6
		C136.1,4987.8,139,4988.4,141.4,4987.4z"/>
	<path d="M117.7,5075.5c-0.9-0.2-2-1.5-2-2.6c0-0.5,0.3-1.3,0.7-1.7c0.7-0.8,0.8-0.9,4.3-1c3.9-0.1,4.8,0.2,5.5,1.6
		c0.6,1.3,0.1,2.7-1.2,3.4c-0.8,0.4-1.8,0.6-3.9,0.5C119.6,5075.7,118,5075.6,117.7,5075.5z"/>
</g>
</svg>
