<?xml version="1.0" encoding="utf-8"?>
<!-- Generator: Adobe Illustrator 26.2.1, SVG Export Plug-In . SVG Version: 6.00 Build 0)  -->
<svg version="1.1" id="Capa_1" xmlns="http://www.w3.org/2000/svg" xmlns:xlink="http://www.w3.org/1999/xlink" x="0px" y="0px"
	 viewBox="0 0 123.4 20" style="enable-background:new 0 0 123.4 20;" xml:space="preserve">
<style type="text/css">
	.st0{fill:#EA3A75;}
	.st1{fill:#B72B6A;}
	.st2{fill:#F8D742;}
	.st3{fill:#F2CB1F;}
	.st4{fill:#5394CC;}
	.st5{fill:#844B1A;}
	.st6{fill:#010100;}
	.st7{fill:#010000;}
	.st8{fill:#373755;}
	.st9{fill:#202033;}
	.st10{fill:#8FCBCC;}
	.st11{fill:#E73735;}
	.st12{fill:#E83735;}
	.st13{fill:#C72121;}
	.st14{fill:#8FCBCB;}
	.st15{fill:#346A92;}
	.st16{fill:#F3CC1E;}
	.st17{fill:#EECA21;}
</style>
<g>
	<path d="M-32-18.1c0-5.2,0-10.4,0-15.6c0.1-0.8,0.6-1.4,1.3-1.8c0.2-0.1,0.4-0.1,0.7-0.2c5.2,0,10.4,0,15.6,0
		c0.8,0.1,1.3,0.5,1.7,1.1c0.2,0.3,0.3,0.7,0.3,1c0,5.1,0,10.2,0,15.2c0,1.2-1,2.2-2.2,2.2c-5.1,0-10.2,0-15.2,0
		c-1,0-1.8-0.7-2.1-1.5C-32-17.8-31.9-18-32-18.1z"/>
	<path class="st0" d="M-14.9-16.8c-0.1,0-0.1,0-0.2,0c-4.8,0-9.7,0-14.5,0c-0.8,0-1.5-0.5-1.7-1.2c0-0.2-0.1-0.3-0.1-0.5
		c0-4.9,0-9.9,0-14.8c0-1,0.7-1.7,1.6-1.7c4.9,0,9.8,0,14.7,0c0,0,0.1,0,0.1,0c0.2,0.1,0.4,0.2,0.5,0.4c0.2,0.3,0.4,0.7,0.4,1.2
		c0,0.1,0,0.2-0.1,0.2c-0.1,0-0.1-0.1-0.1-0.2c-0.2-0.4-0.6-0.6-1.1-0.6c-0.4,0-0.7,0.3-0.9,0.7c-0.3,0.7,0.2,1.5,1,1.5
		c0.5,0,0.8-0.2,1-0.6c0-0.1,0-0.2,0.2-0.1c0,0.1,0,0.2,0,0.3c0,4.2,0,8.5,0,12.7c0,0.1,0,0.2,0,0.3c0,0.1-0.1,0-0.1,0
		c0,0-0.1-0.1-0.1-0.1c-0.3-0.6-1-0.8-1.6-0.4c-0.4,0.2-0.5,0.7-0.4,1.2c0.1,0.4,0.5,0.8,1,0.8c0.5,0,0.8-0.2,1.1-0.6
		c0-0.1,0.1-0.1,0.1-0.2c0.1,0,0.1,0.1,0.1,0.2c0,0.6-0.2,1.1-0.7,1.6C-14.8-16.8-14.9-16.8-14.9-16.8z"/>
	<path class="st1" d="M-14.1-19.2c0.1-0.1,0-0.1,0-0.2c0-4.3,0-8.6,0-12.9c0-0.1,0-0.1,0-0.2c0-0.2,0-0.4,0-0.7c0.1-0.3,0-0.7-0.1-1
		c-0.1-0.3-0.4-0.6-0.6-0.8c1-0.1,1.8,0.7,1.8,1.7c0,4.9,0,9.9,0,14.8c0,1-0.8,1.7-1.8,1.7c0.6-0.4,0.8-1,0.8-1.7c0,0,0-0.1,0-0.1
		C-14.2-18.8-14.2-19-14.1-19.2z"/>
	<path d="M-25.5-26.8c0,1.3,0,2.6,0,3.9c0,0.2,0,0.2,0.2,0.2c0.5,0,0.8,0.2,0.8,0.8c0,0.3,0,0.6,0,0.9c0,0.4-0.3,0.6-0.7,0.7
		c-1.1,0-2.2,0-3.2,0c-0.4,0-0.6-0.3-0.7-0.6c0-0.3,0-0.6,0-0.9c0-0.4,0.3-0.7,0.7-0.7c0.3,0,0.3,0,0.3-0.3c0-1.8,0-3.6,0-5.4
		c0-0.2,0-0.2-0.2-0.2c-0.5,0-0.8-0.2-0.8-0.8c0-0.2,0-0.5,0-0.7c0-0.2,0.1-0.3,0.2-0.5c0.3-0.3,0.5-0.5,0.8-0.8
		c0.1-0.1,0.3-0.2,0.5-0.2c0.5,0,0.9,0,1.4,0c0.5,0,0.7,0.3,0.7,0.7c0,1.2,0,2.5,0,3.7C-25.5-26.9-25.5-26.9-25.5-26.8z"/>
	<path d="M-20-29.1c0,0.5,0,1,0,1.5c0,0.8-0.6,1.4-1.4,1.4c-0.6,0-1.2,0-1.8,0c-0.8,0-1.4-0.6-1.4-1.4c0-1,0-2.1,0-3.1
		c0-0.5,0.3-0.7,0.7-0.7c0.2,0,0.3,0,0.5,0c0.4,0,0.7,0.3,0.7,0.7c0,0.8,0,1.6,0,2.3c0,0.2,0,0.2,0.2,0.2c0.5,0,0.5,0,0.5-0.5
		c0-0.7,0-1.4,0-2.1c0-0.5,0.2-0.7,0.7-0.7c0.2,0,0.3,0,0.5,0c0.5,0,0.7,0.3,0.7,0.7C-20-30.2-20-29.7-20-29.1z"/>
	<path d="M-19.9-25.6c1.3,0,2.5,0,3.8,0c0.5,0,0.8,0.2,0.8,0.8c0,0.2,0,0.3,0,0.5c0,0.4-0.3,0.7-0.7,0.7c-0.1,0-0.1,0-0.2,0
		c-2.5,0-5,0-7.5,0c-0.6,0-0.8-0.2-0.8-0.8c0-0.1,0-0.2,0-0.3c0-0.6,0.2-0.8,0.8-0.8C-22.5-25.6-21.2-25.6-19.9-25.6z"/>
	<path d="M-17.5-31.4c0.4,0,0.7,0,1.1,0c0.6,0,1,0.4,1,1c0,0.4,0,0.9,0,1.3c0,0.6-0.4,1-1,1c-0.3,0-0.5,0-0.8,0
		c-0.1,0-0.2,0-0.2,0.1c0,0.4,0,0.7,0,1.1c0,0.4-0.3,0.7-0.7,0.7c-0.2,0-0.4,0-0.6,0c-0.4,0-0.6-0.3-0.6-0.6c0-1.3,0-2.6,0-3.9
		c0-0.4,0.3-0.6,0.6-0.7C-18.3-31.4-17.9-31.4-17.5-31.4z"/>
	<path d="M-14.1-33.2c0,0.2,0.1,0.4,0,0.7c-0.2,0.5-0.5,0.8-1,0.8c-0.5,0-0.9-0.2-1.1-0.6c-0.3-0.6-0.1-1.3,0.5-1.5
		c0.6-0.3,1.3-0.1,1.5,0.5C-14.2-33.4-14.2-33.3-14.1-33.2z"/>
	<path d="M-29.2-20.1c0.6,0,1.1,0.5,1.1,1.1c0,0.6-0.5,1.1-1.1,1.1c-0.6,0-1.1-0.5-1.1-1.1C-30.4-19.6-29.9-20.1-29.2-20.1z"/>
	<path d="M-28.1-32.9c0,0.6-0.5,1.1-1.1,1.1c-0.6,0-1.1-0.5-1.1-1.1c0-0.6,0.5-1.1,1.1-1.1C-28.6-34-28.1-33.5-28.1-32.9z"/>
	<path d="M-14.1-19.2c0,0.2,0.1,0.4,0,0.7c-0.2,0.4-0.5,0.7-0.9,0.8c-0.5,0.1-0.8-0.1-1.1-0.5c-0.4-0.5-0.2-1.3,0.4-1.6
		c0.6-0.3,1.3-0.1,1.6,0.5C-14.2-19.4-14.2-19.3-14.1-19.2z"/>
	<path class="st2" d="M-26.1-26.6c0,1.3,0,2.6,0,3.8c0,0.5,0.2,0.8,0.8,0.8c0.2,0,0.2,0,0.2,0.2c0,0.2,0,0.4,0,0.7
		c0,0.1,0,0.1-0.1,0.1c-1,0-2,0-3,0c-0.1,0-0.1,0-0.1-0.1c0-0.3,0-0.5,0-0.8c0-0.1,0-0.1,0.1-0.1c0.1,0,0.2,0,0.3,0
		c0.3,0,0.5-0.3,0.6-0.5c0-0.1,0-0.2,0-0.2c0-1.9,0-3.7,0-5.6c0-0.5-0.3-0.8-0.8-0.8c-0.1,0-0.2,0-0.2-0.2c-0.1-0.5,0.1-0.8,0.5-1.1
		c0.2-0.2,0.5-0.3,0.8-0.3c0.3,0,0.6,0,0.8,0c0.2,0,0.2,0.1,0.2,0.2C-26.1-29.3-26.1-28-26.1-26.6z"/>
	<path class="st2" d="M-20.6-29.1c0,0.5,0,1,0,1.5c0,0.5-0.3,0.7-0.7,0.7c-0.6,0-1.2,0-1.8,0c-0.5,0-0.7-0.3-0.7-0.7c0-1,0-2,0-3
		c0-0.1,0-0.2,0.2-0.2c0.2,0,0.4-0.1,0.5,0c0.1,0.1,0,0.3,0,0.5c0,0.7,0,1.3,0,2c0,0.5,0.2,0.7,0.8,0.7c0.2,0,0.4,0,0.6,0
		c0.3,0,0.5-0.2,0.6-0.5c0-0.1,0-0.2,0-0.2c0-0.8,0-1.5,0-2.3c0-0.1,0-0.2,0.2-0.2c0.2,0,0.4-0.1,0.5,0c0.1,0.1,0,0.3,0,0.5
		C-20.6-29.9-20.6-29.5-20.6-29.1z"/>
	<path class="st2" d="M-20-24.9c1.2,0,2.5,0,3.7,0c0.1,0,0.2,0,0.2,0.2c0,0.5,0,0.5-0.5,0.5c-2.4,0-4.7,0-7.1,0
		c-0.2,0-0.2,0-0.2-0.2c0-0.4,0-0.4,0.4-0.4C-22.3-24.9-21.1-24.9-20-24.9z"/>
	<path class="st2" d="M-18.7-28.8c0-0.6,0-1.2,0-1.8c0-0.1,0-0.2,0.2-0.2c0.7,0,1.4,0,2.1,0c0.3,0,0.4,0.1,0.4,0.4
		c0,0.4,0,0.8,0,1.2c0,0.3-0.1,0.4-0.4,0.4c-0.4,0-0.8,0-1.2,0c-0.3,0-0.4,0.1-0.4,0.4c0,0.5,0,0.9,0,1.4c0,0.1,0,0.1-0.1,0.1
		c-0.5,0-0.5,0-0.5-0.5C-18.7-27.9-18.7-28.4-18.7-28.8z"/>
	<path class="st2" d="M-14.8-32.9c0,0.3-0.2,0.5-0.5,0.5c-0.3,0-0.5-0.2-0.5-0.5c0-0.3,0.2-0.5,0.5-0.5
		C-15-33.4-14.8-33.2-14.8-32.9z"/>
	<path class="st2" d="M-29.2-19.4c0.3,0,0.5,0.2,0.5,0.5c0,0.3-0.2,0.5-0.5,0.5c-0.3,0-0.5-0.2-0.5-0.5
		C-29.7-19.2-29.5-19.4-29.2-19.4z"/>
	<path class="st2" d="M-28.7-32.9c0,0.3-0.2,0.5-0.5,0.5c-0.3,0-0.5-0.2-0.5-0.5c0-0.3,0.2-0.5,0.5-0.5
		C-29-33.4-28.7-33.2-28.7-32.9z"/>
	<path class="st2" d="M-14.8-18.9c0,0.3-0.2,0.5-0.5,0.5c-0.3,0-0.5-0.2-0.5-0.5c0-0.3,0.2-0.5,0.5-0.5
		C-15-19.4-14.8-19.2-14.8-18.9z"/>
	<path d="M-17.4-29.5c-0.1,0-0.2,0-0.3,0c-0.2,0-0.3-0.1-0.3-0.3c0-0.2,0.1-0.3,0.3-0.3c0.2,0,0.5,0,0.7,0c0.2,0,0.3,0.1,0.3,0.3
		c0,0.2-0.1,0.3-0.3,0.3C-17.1-29.5-17.2-29.5-17.4-29.5C-17.4-29.5-17.4-29.5-17.4-29.5z"/>
</g>
<g>
	<path class="st3" d="M31.2,16.4c-0.8,0-1.6-0.2-2.3-0.5c-0.7-0.3-1.3-0.7-1.9-1.3c-0.5-0.5-1-1.2-1.3-1.9c-0.3-0.7-0.5-1.5-0.5-2.3
		c0-0.8,0.2-1.6,0.5-2.3C26,7.5,26.5,6.9,27,6.3c0.5-0.5,1.2-1,1.9-1.3c0.7-0.3,1.5-0.5,2.3-0.5c0.5,0,1,0.1,1.5,0.2
		C33.2,4.9,33.6,5,34,5.3c0.2,0.1,0.3,0.2,0.4,0.4c0.1,0.1,0.1,0.3,0.1,0.4c0,0.3-0.1,0.5-0.3,0.7c-0.2,0.2-0.4,0.3-0.7,0.3
		c-0.1,0-0.2,0-0.3,0C33.2,7,33.1,7,33,6.9c-0.3-0.1-0.6-0.2-0.9-0.3c-0.3-0.1-0.6-0.1-1-0.1c-0.7,0-1.4,0.2-1.9,0.5
		c-0.6,0.4-1,0.8-1.4,1.4s-0.5,1.2-0.5,2c0,0.7,0.2,1.4,0.5,2c0.3,0.6,0.8,1.1,1.4,1.4c0.6,0.4,1.2,0.5,1.9,0.5c0.3,0,0.7,0,1.1-0.1
		c0.4-0.1,0.7-0.2,1-0.3l-0.1,0.5v-2.8l0.3,0.2h-1.8c-0.3,0-0.5-0.1-0.7-0.3c-0.2-0.2-0.3-0.4-0.3-0.7s0.1-0.5,0.3-0.7
		c0.2-0.2,0.4-0.3,0.7-0.3h2.7c0.3,0,0.5,0.1,0.7,0.3c0.2,0.2,0.3,0.4,0.3,0.7v3.5c0,0.2-0.1,0.4-0.2,0.5c-0.1,0.1-0.2,0.3-0.4,0.3
		c-0.5,0.3-1,0.5-1.6,0.7S31.9,16.4,31.2,16.4z"/>
	<path class="st3" d="M41.4,7.3l-3.5,8.3c-0.1,0.2-0.2,0.4-0.4,0.5c-0.2,0.1-0.3,0.2-0.5,0.2c-0.3,0-0.5-0.1-0.7-0.2
		c-0.1-0.2-0.2-0.4-0.2-0.6c0-0.1,0-0.2,0-0.3l4.1-9.8c0.1-0.2,0.2-0.4,0.4-0.5c0.2-0.1,0.4-0.2,0.6-0.1c0.2,0,0.4,0.1,0.5,0.2
		c0.2,0.1,0.3,0.3,0.4,0.5l4,9.6c0.1,0.1,0.1,0.3,0.1,0.4c0,0.3-0.1,0.5-0.3,0.7c-0.2,0.2-0.4,0.3-0.6,0.3c-0.2,0-0.4-0.1-0.5-0.2
		c-0.2-0.1-0.3-0.3-0.4-0.5l-3.5-8.2L41.4,7.3z M38.4,13.6l0.9-1.9h4.4l0.3,1.9H38.4z"/>
	<path class="st3" d="M48.7,4.8c0.2,0,0.3,0,0.5,0.1c0.2,0.1,0.3,0.2,0.4,0.3l4,6.1l-0.8,0l4.1-6.1c0.2-0.3,0.5-0.4,0.8-0.4
		c0.3,0,0.5,0.1,0.7,0.3c0.2,0.2,0.3,0.4,0.3,0.7v9.5c0,0.3-0.1,0.5-0.3,0.7c-0.2,0.2-0.4,0.3-0.7,0.3c-0.3,0-0.6-0.1-0.7-0.3
		c-0.2-0.2-0.3-0.4-0.3-0.7V7.5l0.6,0.1l-3.3,5.1c-0.1,0.1-0.2,0.2-0.4,0.3c-0.1,0.1-0.3,0.1-0.4,0.1c-0.1,0-0.3,0-0.4-0.1
		c-0.1-0.1-0.3-0.2-0.4-0.3l-3.1-4.9l0.4-0.9v8.3c0,0.3-0.1,0.5-0.3,0.7c-0.2,0.2-0.4,0.3-0.7,0.3c-0.3,0-0.5-0.1-0.7-0.3
		c-0.2-0.2-0.3-0.4-0.3-0.7V5.8c0-0.3,0.1-0.5,0.3-0.7C48.1,4.9,48.4,4.8,48.7,4.8z"/>
	<path class="st3" d="M62,4.8h5.5c0.3,0,0.5,0.1,0.7,0.3c0.2,0.2,0.3,0.4,0.3,0.7c0,0.3-0.1,0.5-0.3,0.7c-0.2,0.2-0.4,0.3-0.7,0.3
		h-4.6L63,6.4v3.2l-0.1-0.1h3.8c0.3,0,0.5,0.1,0.7,0.3c0.2,0.2,0.3,0.4,0.3,0.7c0,0.3-0.1,0.5-0.3,0.7c-0.2,0.2-0.4,0.3-0.7,0.3H63
		l0.1-0.1v3.3l-0.1-0.1h4.6c0.3,0,0.5,0.1,0.7,0.3c0.2,0.2,0.3,0.4,0.3,0.7c0,0.3-0.1,0.5-0.3,0.7c-0.2,0.2-0.4,0.3-0.7,0.3H62
		c-0.3,0-0.5-0.1-0.7-0.3c-0.2-0.2-0.3-0.4-0.3-0.7V5.8c0-0.3,0.1-0.5,0.3-0.7C61.5,4.9,61.7,4.8,62,4.8z"/>
</g>
<g>
	<path d="M30.3,15.4c-0.8,0-1.6-0.2-2.3-0.5c-0.7-0.3-1.3-0.7-1.9-1.3c-0.5-0.5-1-1.2-1.3-1.9c-0.3-0.7-0.5-1.5-0.5-2.3
		c0-0.8,0.2-1.6,0.5-2.3c0.3-0.7,0.7-1.3,1.3-1.9c0.5-0.5,1.2-1,1.9-1.3c0.7-0.3,1.5-0.5,2.3-0.5c0.5,0,1,0.1,1.5,0.2
		c0.5,0.1,0.9,0.3,1.3,0.5c0.2,0.1,0.3,0.2,0.4,0.4c0.1,0.1,0.1,0.3,0.1,0.4c0,0.3-0.1,0.5-0.3,0.7c-0.2,0.2-0.4,0.3-0.7,0.3
		c-0.1,0-0.2,0-0.3,0C32.3,6,32.2,6,32.1,6c-0.3-0.1-0.6-0.2-0.9-0.3c-0.3-0.1-0.6-0.1-1-0.1c-0.7,0-1.4,0.2-1.9,0.5
		c-0.6,0.4-1,0.8-1.4,1.4s-0.5,1.2-0.5,2c0,0.7,0.2,1.4,0.5,2c0.3,0.6,0.8,1.1,1.4,1.4c0.6,0.4,1.2,0.5,1.9,0.5c0.3,0,0.7,0,1.1-0.1
		c0.4-0.1,0.7-0.2,1-0.3l-0.1,0.5v-2.8l0.3,0.2h-1.8c-0.3,0-0.5-0.1-0.7-0.3c-0.2-0.2-0.3-0.4-0.3-0.7s0.1-0.5,0.3-0.7
		c0.2-0.2,0.4-0.3,0.7-0.3h2.7c0.3,0,0.5,0.1,0.7,0.3c0.2,0.2,0.3,0.4,0.3,0.7v3.5c0,0.2-0.1,0.4-0.2,0.5c-0.1,0.1-0.2,0.3-0.4,0.3
		c-0.5,0.3-1,0.5-1.6,0.7C31.6,15.3,31,15.4,30.3,15.4z"/>
	<path d="M40.5,6.4l-3.5,8.3c-0.1,0.2-0.2,0.4-0.4,0.5c-0.2,0.1-0.3,0.2-0.5,0.2c-0.3,0-0.5-0.1-0.7-0.2c-0.1-0.2-0.2-0.4-0.2-0.6
		c0-0.1,0-0.2,0-0.3l4.1-9.8c0.1-0.2,0.2-0.4,0.4-0.5c0.2-0.1,0.4-0.2,0.6-0.1c0.2,0,0.4,0.1,0.5,0.2C41,4,41.1,4.2,41.2,4.4l4,9.6
		c0.1,0.1,0.1,0.3,0.1,0.4c0,0.3-0.1,0.5-0.3,0.7c-0.2,0.2-0.4,0.3-0.6,0.3c-0.2,0-0.4-0.1-0.5-0.2c-0.2-0.1-0.3-0.3-0.4-0.5L40,6.5
		L40.5,6.4z M37.5,12.7l0.9-1.9h4.4l0.3,1.9H37.5z"/>
	<path d="M47.7,3.8c0.2,0,0.3,0,0.5,0.1c0.2,0.1,0.3,0.2,0.4,0.3l4,6.1l-0.8,0l4.1-6.1c0.2-0.3,0.5-0.4,0.8-0.4
		c0.3,0,0.5,0.1,0.7,0.3c0.2,0.2,0.3,0.4,0.3,0.7v9.5c0,0.3-0.1,0.5-0.3,0.7c-0.2,0.2-0.4,0.3-0.7,0.3c-0.3,0-0.6-0.1-0.7-0.3
		c-0.2-0.2-0.3-0.4-0.3-0.7V6.5l0.6,0.1l-3.3,5.1c-0.1,0.1-0.2,0.2-0.4,0.3c-0.1,0.1-0.3,0.1-0.4,0.1c-0.1,0-0.3,0-0.4-0.1
		c-0.1-0.1-0.3-0.2-0.4-0.3l-3.1-4.9L48.6,6v8.3c0,0.3-0.1,0.5-0.3,0.7c-0.2,0.2-0.4,0.3-0.7,0.3c-0.3,0-0.5-0.1-0.7-0.3
		c-0.2-0.2-0.3-0.4-0.3-0.7V4.8c0-0.3,0.1-0.5,0.3-0.7C47.2,3.9,47.5,3.8,47.7,3.8z"/>
	<path d="M61.1,3.8h5.5c0.3,0,0.5,0.1,0.7,0.3c0.2,0.2,0.3,0.4,0.3,0.7c0,0.3-0.1,0.5-0.3,0.7c-0.2,0.2-0.4,0.3-0.7,0.3H62l0.1-0.3
		v3.2L62,8.5h3.8c0.3,0,0.5,0.1,0.7,0.3c0.2,0.2,0.3,0.4,0.3,0.7c0,0.3-0.1,0.5-0.3,0.7c-0.2,0.2-0.4,0.3-0.7,0.3H62l0.1-0.1v3.3
		L62,13.3h4.6c0.3,0,0.5,0.1,0.7,0.3c0.2,0.2,0.3,0.4,0.3,0.7c0,0.3-0.1,0.5-0.3,0.7c-0.2,0.2-0.4,0.3-0.7,0.3h-5.5
		c-0.3,0-0.5-0.1-0.7-0.3c-0.2-0.2-0.3-0.4-0.3-0.7V4.8c0-0.3,0.1-0.5,0.3-0.7C60.6,3.9,60.8,3.8,61.1,3.8z"/>
</g>
<g>
	<path class="st4" d="M76.3,16.4c-0.8,0-1.4-0.1-2.1-0.3c-0.6-0.2-1.2-0.5-1.7-1c-0.1-0.1-0.3-0.3-0.3-0.4c-0.1-0.2-0.1-0.3-0.1-0.5
		c0-0.3,0.1-0.5,0.3-0.7c0.2-0.2,0.4-0.3,0.7-0.3c0.2,0,0.4,0.1,0.6,0.2c0.4,0.3,0.8,0.6,1.2,0.8c0.4,0.2,0.9,0.3,1.5,0.3
		c0.4,0,0.8-0.1,1.1-0.2c0.3-0.1,0.6-0.3,0.8-0.5c0.2-0.2,0.3-0.5,0.3-0.7c0-0.3-0.1-0.6-0.3-0.8c-0.2-0.2-0.5-0.4-0.9-0.6
		c-0.4-0.2-0.9-0.3-1.5-0.4c-0.6-0.1-1.1-0.2-1.6-0.4c-0.4-0.2-0.8-0.4-1.1-0.7c-0.3-0.3-0.5-0.6-0.7-1c-0.2-0.4-0.2-0.8-0.2-1.3
		c0-0.7,0.2-1.3,0.5-1.8c0.4-0.5,0.9-0.9,1.5-1.1c0.6-0.3,1.3-0.4,2.1-0.4c0.7,0,1.4,0.1,2,0.3c0.6,0.2,1.1,0.5,1.5,0.8
		c0.3,0.3,0.5,0.5,0.5,0.9c0,0.2-0.1,0.5-0.3,0.7s-0.4,0.3-0.7,0.3c-0.2,0-0.3,0-0.4-0.1c-0.2-0.2-0.4-0.3-0.7-0.4
		c-0.3-0.1-0.6-0.3-0.9-0.3c-0.3-0.1-0.6-0.1-0.9-0.1c-0.5,0-0.9,0.1-1.2,0.2c-0.3,0.1-0.6,0.3-0.7,0.5c-0.2,0.2-0.2,0.4-0.2,0.7
		c0,0.3,0.1,0.6,0.3,0.8c0.2,0.2,0.5,0.4,0.8,0.5c0.4,0.1,0.8,0.2,1.3,0.3c0.7,0.1,1.2,0.3,1.7,0.4c0.5,0.2,0.9,0.4,1.2,0.6
		c0.3,0.3,0.6,0.6,0.7,1c0.2,0.4,0.2,0.9,0.2,1.4c0,0.7-0.2,1.3-0.6,1.8c-0.4,0.5-0.9,0.9-1.5,1.2C77.8,16.2,77.1,16.4,76.3,16.4z"
		/>
	<path class="st4" d="M82.7,6.7c-0.3,0-0.5-0.1-0.7-0.3c-0.2-0.2-0.3-0.4-0.3-0.7c0-0.3,0.1-0.5,0.3-0.7c0.2-0.2,0.4-0.3,0.7-0.3
		h7.2c0.3,0,0.5,0.1,0.7,0.3c0.2,0.2,0.3,0.4,0.3,0.7c0,0.3-0.1,0.5-0.3,0.7c-0.2,0.2-0.4,0.3-0.7,0.3H82.7z M86.3,16.2
		c-0.3,0-0.6-0.1-0.8-0.3c-0.2-0.2-0.3-0.4-0.3-0.7V5.7h2.1v9.5c0,0.3-0.1,0.5-0.3,0.7C86.8,16.1,86.6,16.2,86.3,16.2z"/>
	<path class="st4" d="M102.8,10.5c0,0.8-0.1,1.6-0.4,2.3c-0.3,0.7-0.7,1.3-1.2,1.9c-0.5,0.5-1.1,1-1.8,1.3c-0.7,0.3-1.4,0.5-2.2,0.5
		c-0.8,0-1.5-0.2-2.2-0.5c-0.7-0.3-1.3-0.7-1.8-1.3c-0.5-0.5-0.9-1.2-1.2-1.9c-0.3-0.7-0.4-1.5-0.4-2.3c0-0.8,0.1-1.6,0.4-2.3
		c0.3-0.7,0.7-1.3,1.2-1.9c0.5-0.5,1.1-1,1.8-1.3c0.7-0.3,1.4-0.5,2.2-0.5c0.8,0,1.5,0.2,2.2,0.5c0.7,0.3,1.3,0.7,1.8,1.3
		c0.5,0.5,0.9,1.2,1.2,1.9C102.7,8.9,102.8,9.7,102.8,10.5z M100.7,10.5c0-0.7-0.1-1.4-0.4-2C100,7.9,99.6,7.4,99,7.1
		c-0.5-0.3-1.1-0.5-1.8-0.5c-0.7,0-1.3,0.2-1.8,0.5c-0.5,0.3-0.9,0.8-1.2,1.4c-0.3,0.6-0.4,1.3-0.4,2c0,0.7,0.1,1.4,0.4,2
		c0.3,0.6,0.7,1.1,1.2,1.4c0.5,0.3,1.1,0.5,1.8,0.5c0.7,0,1.3-0.2,1.8-0.5c0.5-0.3,0.9-0.8,1.2-1.4
		C100.5,11.9,100.7,11.2,100.7,10.5z"/>
	<path class="st4" d="M105.9,16.2c-0.3,0-0.6-0.1-0.8-0.3c-0.2-0.2-0.4-0.4-0.4-0.7V5.8c0-0.3,0.1-0.5,0.3-0.7
		c0.2-0.2,0.4-0.3,0.7-0.3h4.7c0.6,0,1.1,0.1,1.6,0.4c0.5,0.3,0.9,0.7,1.2,1.2c0.3,0.5,0.5,1.1,0.5,1.8c0,0.4-0.1,0.8-0.3,1.2
		c-0.2,0.4-0.4,0.7-0.7,1.1c-0.3,0.3-0.6,0.6-1,0.7l0-0.4c0.3,0.2,0.6,0.4,0.8,0.6c0.2,0.2,0.4,0.5,0.5,0.7c0.1,0.3,0.2,0.5,0.2,0.8
		c0,0.3,0.1,0.5,0.1,0.7c0,0.2,0,0.4,0.1,0.5c0,0.1,0.1,0.3,0.3,0.3c0.2,0.1,0.4,0.3,0.4,0.6c0.1,0.3,0,0.5-0.2,0.7
		c-0.1,0.1-0.3,0.2-0.5,0.3c-0.2,0-0.4,0-0.6,0c-0.2,0-0.3-0.1-0.5-0.2c-0.2-0.1-0.4-0.3-0.6-0.5c-0.2-0.2-0.3-0.5-0.4-0.9
		c-0.1-0.4-0.2-0.8-0.2-1.4c0-0.2,0-0.4-0.1-0.5c-0.1-0.2-0.2-0.3-0.3-0.4c-0.1-0.1-0.3-0.2-0.5-0.3c-0.2-0.1-0.4-0.1-0.7-0.1h-3.3
		l0.2-0.4v3.5c0,0.3-0.1,0.5-0.2,0.7C106.3,16.1,106.1,16.2,105.9,16.2z M106.5,10.4h3.8c0.2,0,0.4-0.1,0.6-0.3
		c0.2-0.2,0.3-0.4,0.5-0.7c0.1-0.3,0.2-0.7,0.2-1c0-0.5-0.1-0.9-0.4-1.2c-0.3-0.3-0.5-0.5-0.8-0.5h-3.8l0.2-0.5v4.6L106.5,10.4z"/>
	<path class="st4" d="M116.9,4.8h5.5c0.3,0,0.5,0.1,0.7,0.3c0.2,0.2,0.3,0.4,0.3,0.7c0,0.3-0.1,0.5-0.3,0.7
		c-0.2,0.2-0.4,0.3-0.7,0.3h-4.6l0.1-0.3v3.2l-0.1-0.1h3.8c0.3,0,0.5,0.1,0.7,0.3c0.2,0.2,0.3,0.4,0.3,0.7c0,0.3-0.1,0.5-0.3,0.7
		c-0.2,0.2-0.4,0.3-0.7,0.3h-3.8l0.1-0.1v3.3l-0.1-0.1h4.6c0.3,0,0.5,0.1,0.7,0.3c0.2,0.2,0.3,0.4,0.3,0.7c0,0.3-0.1,0.5-0.3,0.7
		c-0.2,0.2-0.4,0.3-0.7,0.3h-5.5c-0.3,0-0.5-0.1-0.7-0.3c-0.2-0.2-0.3-0.4-0.3-0.7V5.8c0-0.3,0.1-0.5,0.3-0.7
		C116.4,4.9,116.6,4.8,116.9,4.8z"/>
</g>
<g>
	<path d="M75.4,15.4c-0.8,0-1.4-0.1-2.1-0.3c-0.6-0.2-1.2-0.5-1.7-1c-0.1-0.1-0.3-0.3-0.3-0.4c-0.1-0.2-0.1-0.3-0.1-0.5
		c0-0.3,0.1-0.5,0.3-0.7c0.2-0.2,0.4-0.3,0.7-0.3c0.2,0,0.4,0.1,0.6,0.2c0.4,0.3,0.8,0.6,1.2,0.8c0.4,0.2,0.9,0.3,1.5,0.3
		c0.4,0,0.8-0.1,1.1-0.2c0.3-0.1,0.6-0.3,0.8-0.5c0.2-0.2,0.3-0.5,0.3-0.7c0-0.3-0.1-0.6-0.3-0.8c-0.2-0.2-0.5-0.4-0.9-0.6
		c-0.4-0.2-0.9-0.3-1.5-0.4c-0.6-0.1-1.1-0.2-1.6-0.4c-0.4-0.2-0.8-0.4-1.1-0.7c-0.3-0.3-0.5-0.6-0.7-1c-0.2-0.4-0.2-0.8-0.2-1.3
		c0-0.7,0.2-1.3,0.5-1.8c0.4-0.5,0.9-0.9,1.5-1.1c0.6-0.3,1.3-0.4,2.1-0.4c0.7,0,1.4,0.1,2,0.3c0.6,0.2,1.1,0.5,1.5,0.8
		c0.3,0.3,0.5,0.5,0.5,0.9c0,0.2-0.1,0.5-0.3,0.7c-0.2,0.2-0.4,0.3-0.7,0.3c-0.2,0-0.3,0-0.4-0.1c-0.2-0.2-0.4-0.3-0.7-0.4
		s-0.6-0.3-0.9-0.3c-0.3-0.1-0.6-0.1-0.9-0.1c-0.5,0-0.9,0.1-1.2,0.2c-0.3,0.1-0.6,0.3-0.7,0.5c-0.2,0.2-0.2,0.4-0.2,0.7
		c0,0.3,0.1,0.6,0.3,0.8c0.2,0.2,0.5,0.4,0.8,0.5c0.4,0.1,0.8,0.2,1.3,0.3c0.7,0.1,1.2,0.3,1.7,0.4c0.5,0.2,0.9,0.4,1.2,0.6
		c0.3,0.3,0.6,0.6,0.7,1c0.2,0.4,0.2,0.9,0.2,1.4c0,0.7-0.2,1.3-0.6,1.8c-0.4,0.5-0.9,0.9-1.5,1.2C76.8,15.3,76.2,15.4,75.4,15.4z"
		/>
	<path d="M81.7,5.7c-0.3,0-0.5-0.1-0.7-0.3c-0.2-0.2-0.3-0.4-0.3-0.7c0-0.3,0.1-0.5,0.3-0.7c0.2-0.2,0.4-0.3,0.7-0.3H89
		c0.3,0,0.5,0.1,0.7,0.3C89.9,4.2,90,4.5,90,4.7c0,0.3-0.1,0.5-0.3,0.7c-0.2,0.2-0.4,0.3-0.7,0.3H81.7z M85.4,15.2
		c-0.3,0-0.6-0.1-0.8-0.3c-0.2-0.2-0.3-0.4-0.3-0.7V4.8h2.1v9.5c0,0.3-0.1,0.5-0.3,0.7C85.9,15.1,85.7,15.2,85.4,15.2z"/>
	<path d="M101.9,9.5c0,0.8-0.1,1.6-0.4,2.3c-0.3,0.7-0.7,1.3-1.2,1.9c-0.5,0.5-1.1,1-1.8,1.3c-0.7,0.3-1.4,0.5-2.2,0.5
		c-0.8,0-1.5-0.2-2.2-0.5c-0.7-0.3-1.3-0.7-1.8-1.3c-0.5-0.5-0.9-1.2-1.2-1.9c-0.3-0.7-0.4-1.5-0.4-2.3c0-0.8,0.1-1.6,0.4-2.3
		c0.3-0.7,0.7-1.3,1.2-1.9c0.5-0.5,1.1-1,1.8-1.3c0.7-0.3,1.4-0.5,2.2-0.5c0.8,0,1.5,0.2,2.2,0.5c0.7,0.3,1.3,0.7,1.8,1.3
		c0.5,0.5,0.9,1.2,1.2,1.9C101.8,7.9,101.9,8.7,101.9,9.5z M99.8,9.5c0-0.7-0.1-1.4-0.4-2c-0.3-0.6-0.7-1.1-1.2-1.4
		c-0.5-0.3-1.1-0.5-1.8-0.5c-0.7,0-1.3,0.2-1.8,0.5c-0.5,0.3-0.9,0.8-1.2,1.4c-0.3,0.6-0.4,1.3-0.4,2c0,0.7,0.1,1.4,0.4,2
		c0.3,0.6,0.7,1.1,1.2,1.4c0.5,0.3,1.1,0.5,1.8,0.5c0.7,0,1.3-0.2,1.8-0.5c0.5-0.3,0.9-0.8,1.2-1.4C99.6,10.9,99.8,10.2,99.8,9.5z"
		/>
	<path d="M104.9,15.2c-0.3,0-0.6-0.1-0.8-0.3c-0.2-0.2-0.4-0.4-0.4-0.7V4.8c0-0.3,0.1-0.5,0.3-0.7c0.2-0.2,0.4-0.3,0.7-0.3h4.7
		c0.6,0,1.1,0.1,1.6,0.4c0.5,0.3,0.9,0.7,1.2,1.2c0.3,0.5,0.5,1.1,0.5,1.8c0,0.4-0.1,0.8-0.3,1.2c-0.2,0.4-0.4,0.7-0.7,1.1
		c-0.3,0.3-0.6,0.6-1,0.7l0-0.4c0.3,0.2,0.6,0.4,0.8,0.6c0.2,0.2,0.4,0.5,0.5,0.7c0.1,0.3,0.2,0.5,0.2,0.8c0,0.3,0.1,0.5,0.1,0.7
		c0,0.2,0,0.4,0.1,0.5c0,0.1,0.1,0.3,0.3,0.3c0.2,0.1,0.4,0.3,0.4,0.6c0.1,0.3,0,0.5-0.2,0.7c-0.1,0.1-0.3,0.2-0.5,0.3
		c-0.2,0-0.4,0-0.6,0c-0.2,0-0.3-0.1-0.5-0.2c-0.2-0.1-0.4-0.3-0.6-0.5c-0.2-0.2-0.3-0.5-0.4-0.9c-0.1-0.4-0.2-0.8-0.2-1.4
		c0-0.2,0-0.4-0.1-0.5c-0.1-0.2-0.2-0.3-0.3-0.4c-0.1-0.1-0.3-0.2-0.5-0.3c-0.2-0.1-0.4-0.1-0.7-0.1h-3.3l0.2-0.4v3.5
		c0,0.3-0.1,0.5-0.2,0.7C105.4,15.1,105.2,15.2,104.9,15.2z M105.6,9.4h3.8c0.2,0,0.4-0.1,0.6-0.3c0.2-0.2,0.3-0.4,0.5-0.7
		c0.1-0.3,0.2-0.7,0.2-1c0-0.5-0.1-0.9-0.4-1.2c-0.3-0.3-0.5-0.5-0.8-0.5h-3.8l0.2-0.5v4.6L105.6,9.4z"/>
	<path d="M116,3.8h5.5c0.3,0,0.5,0.1,0.7,0.3c0.2,0.2,0.3,0.4,0.3,0.7c0,0.3-0.1,0.5-0.3,0.7c-0.2,0.2-0.4,0.3-0.7,0.3h-4.6l0.1-0.3
		v3.2l-0.1-0.1h3.8c0.3,0,0.5,0.1,0.7,0.3c0.2,0.2,0.3,0.4,0.3,0.7c0,0.3-0.1,0.5-0.3,0.7c-0.2,0.2-0.4,0.3-0.7,0.3h-3.8l0.1-0.1
		v3.3l-0.1-0.1h4.6c0.3,0,0.5,0.1,0.7,0.3c0.2,0.2,0.3,0.4,0.3,0.7c0,0.3-0.1,0.5-0.3,0.7c-0.2,0.2-0.4,0.3-0.7,0.3H116
		c-0.3,0-0.5-0.1-0.7-0.3c-0.2-0.2-0.3-0.4-0.3-0.7V4.8c0-0.3,0.1-0.5,0.3-0.7C115.5,3.9,115.7,3.8,116,3.8z"/>
</g>
<g>
	<g>
		<path d="M28.1-18.8c-0.8,0-1.5-0.1-2.2-0.4c-0.7-0.3-1.3-0.7-1.8-1.2c-0.5-0.5-0.9-1.1-1.2-1.7s-0.4-1.4-0.4-2.1
			c0-0.8,0.1-1.5,0.4-2.1c0.3-0.7,0.7-1.2,1.2-1.7c0.5-0.5,1.1-0.9,1.8-1.2c0.7-0.3,1.4-0.4,2.2-0.4c0.5,0,0.9,0.1,1.4,0.2
			c0.4,0.1,0.9,0.3,1.2,0.5c0.2,0.1,0.3,0.2,0.3,0.3c0.1,0.1,0.1,0.3,0.1,0.4c0,0.2-0.1,0.5-0.2,0.7c-0.2,0.2-0.4,0.3-0.6,0.3
			c-0.1,0-0.2,0-0.3,0c-0.1,0-0.2-0.1-0.3-0.1c-0.3-0.1-0.5-0.2-0.8-0.3c-0.3-0.1-0.6-0.1-0.9-0.1c-0.7,0-1.3,0.2-1.8,0.5
			c-0.5,0.3-1,0.8-1.3,1.3c-0.3,0.6-0.5,1.2-0.5,1.8c0,0.7,0.2,1.3,0.5,1.8c0.3,0.6,0.7,1,1.3,1.3c0.5,0.3,1.1,0.5,1.8,0.5
			c0.3,0,0.6,0,1-0.1c0.4-0.1,0.7-0.1,0.9-0.2l-0.1,0.5v-2.6l0.3,0.2h-1.7c-0.3,0-0.5-0.1-0.7-0.3c-0.2-0.2-0.3-0.4-0.3-0.7
			c0-0.3,0.1-0.5,0.3-0.7c0.2-0.2,0.4-0.3,0.7-0.3h2.5c0.3,0,0.5,0.1,0.7,0.3c0.2,0.2,0.3,0.4,0.3,0.7v3.2c0,0.2,0,0.4-0.1,0.5
			c-0.1,0.1-0.2,0.2-0.3,0.3c-0.5,0.3-1,0.5-1.5,0.7C29.3-18.9,28.7-18.8,28.1-18.8z"/>
		<path d="M37.5-27.2l-3.3,7.7c-0.1,0.2-0.2,0.3-0.3,0.4c-0.1,0.1-0.3,0.2-0.5,0.2c-0.3,0-0.5-0.1-0.6-0.2c-0.1-0.2-0.2-0.3-0.2-0.6
			c0-0.1,0-0.2,0-0.3l3.8-9.1c0.1-0.2,0.2-0.4,0.4-0.5c0.2-0.1,0.3-0.2,0.5-0.1c0.2,0,0.4,0.1,0.5,0.2c0.2,0.1,0.3,0.3,0.3,0.4
			l3.7,8.9c0.1,0.1,0.1,0.3,0.1,0.4c0,0.3-0.1,0.5-0.3,0.7c-0.2,0.2-0.4,0.2-0.6,0.2c-0.2,0-0.3-0.1-0.5-0.2
			c-0.1-0.1-0.3-0.3-0.3-0.5l-3.3-7.6L37.5-27.2z M34.7-21.4l0.8-1.7h4.1l0.3,1.7H34.7z"/>
		<path d="M44.3-29.6c0.1,0,0.3,0,0.4,0.1c0.2,0.1,0.3,0.2,0.4,0.3l3.7,5.7l-0.8,0l3.8-5.6c0.2-0.3,0.4-0.4,0.7-0.4
			c0.2,0,0.5,0.1,0.7,0.3c0.2,0.2,0.3,0.4,0.3,0.7v8.8c0,0.3-0.1,0.5-0.3,0.7C53-19.1,52.8-19,52.5-19c-0.3,0-0.5-0.1-0.7-0.3
			c-0.2-0.2-0.3-0.4-0.3-0.7v-7.1l0.6,0.1l-3.1,4.7c-0.1,0.1-0.2,0.2-0.3,0.3c-0.1,0.1-0.3,0.1-0.4,0.1c-0.1,0-0.3,0-0.4-0.1
			c-0.1-0.1-0.3-0.2-0.3-0.3l-2.9-4.6l0.4-0.8v7.7c0,0.3-0.1,0.5-0.2,0.7c-0.2,0.2-0.4,0.3-0.6,0.3c-0.3,0-0.5-0.1-0.6-0.3
			c-0.2-0.2-0.2-0.4-0.2-0.7v-8.8c0-0.3,0.1-0.5,0.3-0.7C43.8-29.5,44-29.6,44.3-29.6z"/>
		<path d="M56.7-29.6h5.1c0.3,0,0.5,0.1,0.7,0.3c0.2,0.2,0.3,0.4,0.3,0.6c0,0.3-0.1,0.5-0.3,0.6c-0.2,0.2-0.4,0.2-0.7,0.2h-4.2
			l0.1-0.3v3l-0.1-0.1h3.5c0.3,0,0.5,0.1,0.7,0.3c0.2,0.2,0.3,0.4,0.3,0.6c0,0.3-0.1,0.5-0.3,0.6c-0.2,0.2-0.4,0.2-0.7,0.2h-3.5
			l0.1-0.1v3.1l-0.1-0.1h4.2c0.3,0,0.5,0.1,0.7,0.3c0.2,0.2,0.3,0.4,0.3,0.6c0,0.3-0.1,0.5-0.3,0.6C62.2-19.1,62-19,61.8-19h-5.1
			c-0.3,0-0.5-0.1-0.7-0.3c-0.2-0.2-0.3-0.4-0.3-0.7v-8.8c0-0.3,0.1-0.5,0.3-0.7C56.2-29.5,56.4-29.6,56.7-29.6z"/>
	</g>
	<g>
		<path class="st0" d="M27.2-19.8c-0.8,0-1.5-0.1-2.2-0.4c-0.7-0.3-1.3-0.7-1.8-1.2c-0.5-0.5-0.9-1.1-1.2-1.7
			c-0.3-0.7-0.4-1.4-0.4-2.1c0-0.8,0.1-1.5,0.4-2.1c0.3-0.7,0.7-1.2,1.2-1.7c0.5-0.5,1.1-0.9,1.8-1.2c0.7-0.3,1.4-0.4,2.2-0.4
			c0.5,0,0.9,0.1,1.4,0.2c0.4,0.1,0.9,0.3,1.2,0.5c0.2,0.1,0.3,0.2,0.3,0.3c0.1,0.1,0.1,0.3,0.1,0.4c0,0.2-0.1,0.5-0.2,0.7
			c-0.2,0.2-0.4,0.3-0.6,0.3c-0.1,0-0.2,0-0.3,0c-0.1,0-0.2-0.1-0.3-0.1c-0.3-0.1-0.5-0.2-0.8-0.3c-0.3-0.1-0.6-0.1-0.9-0.1
			c-0.7,0-1.3,0.2-1.8,0.5c-0.5,0.3-1,0.8-1.3,1.3c-0.3,0.6-0.5,1.2-0.5,1.8c0,0.7,0.2,1.3,0.5,1.8c0.3,0.6,0.7,1,1.3,1.3
			c0.5,0.3,1.1,0.5,1.8,0.5c0.3,0,0.6,0,1-0.1c0.4-0.1,0.7-0.1,0.9-0.2L29-21.5V-24l0.3,0.2h-1.7c-0.3,0-0.5-0.1-0.7-0.3
			c-0.2-0.2-0.3-0.4-0.3-0.7c0-0.3,0.1-0.5,0.3-0.7c0.2-0.2,0.4-0.3,0.7-0.3H30c0.3,0,0.5,0.1,0.7,0.3c0.2,0.2,0.3,0.4,0.3,0.7v3.2
			c0,0.2,0,0.4-0.1,0.5c-0.1,0.1-0.2,0.2-0.3,0.3c-0.5,0.3-1,0.5-1.5,0.7C28.4-19.8,27.8-19.8,27.2-19.8z"/>
		<path class="st0" d="M36.7-28.1l-3.3,7.7c-0.1,0.2-0.2,0.3-0.3,0.4c-0.1,0.1-0.3,0.2-0.5,0.2c-0.3,0-0.5-0.1-0.6-0.2
			c-0.1-0.2-0.2-0.3-0.2-0.6c0-0.1,0-0.2,0-0.3l3.8-9.1c0.1-0.2,0.2-0.4,0.4-0.5c0.2-0.1,0.3-0.2,0.5-0.1c0.2,0,0.4,0.1,0.5,0.2
			c0.2,0.1,0.3,0.3,0.3,0.4l3.7,8.9c0.1,0.1,0.1,0.3,0.1,0.4c0,0.3-0.1,0.5-0.3,0.7c-0.2,0.2-0.4,0.2-0.6,0.2
			c-0.2,0-0.3-0.1-0.5-0.2c-0.1-0.1-0.3-0.3-0.3-0.5l-3.3-7.6L36.7-28.1z M33.9-22.3l0.8-1.7h4.1l0.3,1.7H33.9z"/>
		<path class="st0" d="M43.4-30.5c0.1,0,0.3,0,0.4,0.1c0.2,0.1,0.3,0.2,0.4,0.3l3.7,5.7l-0.8,0l3.8-5.6c0.2-0.3,0.4-0.4,0.7-0.4
			c0.2,0,0.5,0.1,0.7,0.3c0.2,0.2,0.3,0.4,0.3,0.7v8.8c0,0.3-0.1,0.5-0.3,0.7c-0.2,0.2-0.4,0.3-0.7,0.3c-0.3,0-0.5-0.1-0.7-0.3
			c-0.2-0.2-0.3-0.4-0.3-0.7V-28l0.6,0.1l-3.1,4.7c-0.1,0.1-0.2,0.2-0.3,0.3c-0.1,0.1-0.3,0.1-0.4,0.1c-0.1,0-0.3,0-0.4-0.1
			c-0.1-0.1-0.3-0.2-0.3-0.3l-2.9-4.6l0.4-0.8v7.7c0,0.3-0.1,0.5-0.2,0.7c-0.2,0.2-0.4,0.3-0.6,0.3c-0.3,0-0.5-0.1-0.6-0.3
			c-0.2-0.2-0.2-0.4-0.2-0.7v-8.8c0-0.3,0.1-0.5,0.3-0.7C42.9-30.4,43.2-30.5,43.4-30.5z"/>
		<path class="st0" d="M55.8-30.5h5.1c0.3,0,0.5,0.1,0.7,0.3c0.2,0.2,0.3,0.4,0.3,0.6c0,0.3-0.1,0.5-0.3,0.6
			c-0.2,0.2-0.4,0.2-0.7,0.2h-4.2l0.1-0.3v3l-0.1-0.1h3.5c0.3,0,0.5,0.1,0.7,0.3c0.2,0.2,0.3,0.4,0.3,0.6c0,0.3-0.1,0.5-0.3,0.6
			c-0.2,0.2-0.4,0.2-0.7,0.2h-3.5l0.1-0.1v3.1l-0.1-0.1h4.2c0.3,0,0.5,0.1,0.7,0.3c0.2,0.2,0.3,0.4,0.3,0.6c0,0.3-0.1,0.5-0.3,0.6
			c-0.2,0.2-0.4,0.2-0.7,0.2h-5.1c-0.3,0-0.5-0.1-0.7-0.3c-0.2-0.2-0.3-0.4-0.3-0.7v-8.8c0-0.3,0.1-0.5,0.3-0.7
			C55.3-30.4,55.6-30.5,55.8-30.5z"/>
	</g>
	<g>
		<path class="st0" d="M68-18.8c-0.7,0-1.3-0.1-1.9-0.3c-0.6-0.2-1.1-0.5-1.6-0.9c-0.1-0.1-0.2-0.2-0.3-0.4
			c-0.1-0.1-0.1-0.3-0.1-0.4c0-0.2,0.1-0.4,0.3-0.6c0.2-0.2,0.4-0.3,0.6-0.3c0.2,0,0.4,0.1,0.5,0.2c0.4,0.3,0.8,0.6,1.1,0.7
			c0.4,0.2,0.8,0.2,1.4,0.2c0.4,0,0.7-0.1,1-0.2c0.3-0.1,0.6-0.3,0.8-0.5c0.2-0.2,0.3-0.4,0.3-0.7c0-0.3-0.1-0.6-0.3-0.8
			c-0.2-0.2-0.5-0.4-0.8-0.5c-0.4-0.1-0.8-0.3-1.4-0.3c-0.5-0.1-1-0.2-1.4-0.4c-0.4-0.2-0.8-0.4-1-0.6c-0.3-0.3-0.5-0.6-0.6-0.9
			c-0.1-0.3-0.2-0.7-0.2-1.2c0-0.7,0.2-1.2,0.5-1.7c0.3-0.5,0.8-0.8,1.4-1.1c0.6-0.2,1.2-0.4,1.9-0.4c0.7,0,1.3,0.1,1.8,0.3
			c0.6,0.2,1,0.4,1.4,0.8c0.3,0.2,0.4,0.5,0.4,0.8c0,0.2-0.1,0.4-0.3,0.6S71-27,70.8-27c-0.2,0-0.3,0-0.4-0.1
			c-0.2-0.1-0.4-0.3-0.7-0.4c-0.3-0.1-0.6-0.2-0.9-0.3C68.6-28,68.3-28,68-28c-0.4,0-0.8,0.1-1.1,0.2c-0.3,0.1-0.5,0.3-0.7,0.5
			C66.1-27.2,66-27,66-26.7c0,0.3,0.1,0.6,0.3,0.8c0.2,0.2,0.4,0.4,0.8,0.5c0.3,0.1,0.7,0.2,1.2,0.3c0.6,0.1,1.1,0.2,1.6,0.4
			c0.5,0.2,0.8,0.3,1.1,0.6c0.3,0.2,0.5,0.5,0.7,0.9c0.2,0.4,0.2,0.8,0.2,1.3c0,0.7-0.2,1.2-0.5,1.7c-0.4,0.5-0.8,0.8-1.4,1.1
			C69.3-19,68.7-18.8,68-18.8z"/>
		<path class="st0" d="M73.9-27.9c-0.3,0-0.5-0.1-0.7-0.2C73-28.3,73-28.5,73-28.8c0-0.3,0.1-0.5,0.3-0.6c0.2-0.2,0.4-0.2,0.7-0.2
			h6.7c0.3,0,0.5,0.1,0.7,0.2c0.2,0.2,0.3,0.4,0.3,0.6c0,0.3-0.1,0.5-0.3,0.6c-0.2,0.2-0.4,0.2-0.7,0.2H73.9z M77.2-19
			c-0.3,0-0.5-0.1-0.7-0.3c-0.2-0.2-0.3-0.4-0.3-0.7v-8.8h2v8.8c0,0.3-0.1,0.5-0.3,0.7C77.8-19.1,77.5-19,77.2-19z"/>
		<path class="st0" d="M92.6-24.3c0,0.8-0.1,1.5-0.4,2.1s-0.6,1.2-1.1,1.7c-0.5,0.5-1,0.9-1.6,1.2c-0.6,0.3-1.3,0.4-2.1,0.4
			S86-19,85.4-19.3c-0.6-0.3-1.2-0.7-1.6-1.2c-0.5-0.5-0.8-1.1-1.1-1.7c-0.3-0.7-0.4-1.4-0.4-2.1c0-0.8,0.1-1.5,0.4-2.1
			c0.3-0.7,0.6-1.2,1.1-1.7c0.5-0.5,1-0.9,1.6-1.2c0.6-0.3,1.3-0.4,2.1-0.4s1.4,0.1,2.1,0.4c0.6,0.3,1.2,0.7,1.6,1.2
			c0.5,0.5,0.8,1.1,1.1,1.7C92.5-25.8,92.6-25.1,92.6-24.3z M90.6-24.3c0-0.7-0.1-1.3-0.4-1.8c-0.3-0.6-0.6-1-1.1-1.3
			c-0.5-0.3-1-0.5-1.7-0.5c-0.6,0-1.2,0.2-1.7,0.5c-0.5,0.3-0.8,0.8-1.1,1.3c-0.3,0.5-0.4,1.2-0.4,1.9c0,0.7,0.1,1.3,0.4,1.8
			c0.3,0.6,0.6,1,1.1,1.3c0.5,0.3,1,0.5,1.7,0.5c0.6,0,1.2-0.2,1.7-0.5c0.5-0.3,0.8-0.8,1.1-1.3C90.5-23,90.6-23.6,90.6-24.3z"/>
		<path class="st0" d="M95.4-19c-0.3,0-0.5-0.1-0.8-0.3c-0.2-0.2-0.3-0.4-0.3-0.7v-8.8c0-0.3,0.1-0.5,0.3-0.7
			c0.2-0.2,0.4-0.3,0.7-0.3h4.4c0.5,0,1,0.1,1.5,0.4c0.5,0.3,0.8,0.7,1.1,1.2c0.3,0.5,0.4,1.1,0.4,1.7c0,0.4-0.1,0.8-0.2,1.1
			c-0.2,0.4-0.4,0.7-0.6,1c-0.3,0.3-0.6,0.5-0.9,0.7l0-0.3c0.3,0.2,0.5,0.3,0.7,0.5c0.2,0.2,0.3,0.4,0.4,0.7
			c0.1,0.2,0.2,0.5,0.2,0.8c0,0.3,0.1,0.5,0.1,0.7c0,0.2,0,0.4,0.1,0.5c0,0.1,0.1,0.2,0.3,0.3c0.2,0.1,0.4,0.3,0.4,0.6
			c0.1,0.2,0,0.5-0.2,0.7c-0.1,0.1-0.3,0.2-0.4,0.3c-0.2,0-0.3,0-0.5,0c-0.2,0-0.3-0.1-0.4-0.1c-0.2-0.1-0.3-0.3-0.5-0.4
			c-0.2-0.2-0.3-0.5-0.4-0.8c-0.1-0.3-0.2-0.8-0.2-1.3c0-0.2,0-0.3-0.1-0.5c-0.1-0.1-0.1-0.3-0.3-0.4c-0.1-0.1-0.3-0.2-0.4-0.2
			c-0.2-0.1-0.4-0.1-0.6-0.1H96l0.2-0.3v3.3c0,0.3-0.1,0.5-0.2,0.7C95.9-19.1,95.7-19,95.4-19z M96-24.4h3.5c0.2,0,0.4-0.1,0.5-0.3
			c0.2-0.2,0.3-0.4,0.4-0.7c0.1-0.3,0.2-0.6,0.2-0.9c0-0.4-0.1-0.8-0.4-1.1c-0.2-0.3-0.5-0.4-0.8-0.4h-3.5l0.2-0.5v4.3L96-24.4z"/>
		<path class="st0" d="M105.7-29.6h5.1c0.3,0,0.5,0.1,0.7,0.3c0.2,0.2,0.3,0.4,0.3,0.6c0,0.3-0.1,0.5-0.3,0.6
			c-0.2,0.2-0.4,0.2-0.7,0.2h-4.2l0.1-0.3v3l-0.1-0.1h3.5c0.3,0,0.5,0.1,0.7,0.3c0.2,0.2,0.3,0.4,0.3,0.6c0,0.3-0.1,0.5-0.3,0.6
			c-0.2,0.2-0.4,0.2-0.7,0.2h-3.5l0.1-0.1v3.1l-0.1-0.1h4.2c0.3,0,0.5,0.1,0.7,0.3c0.2,0.2,0.3,0.4,0.3,0.6c0,0.3-0.1,0.5-0.3,0.6
			c-0.2,0.2-0.4,0.2-0.7,0.2h-5.1c-0.3,0-0.5-0.1-0.7-0.3c-0.2-0.2-0.3-0.4-0.3-0.7v-8.8c0-0.3,0.1-0.5,0.3-0.7
			C105.2-29.5,105.4-29.6,105.7-29.6z"/>
	</g>
	<g>
		<path d="M67.1-19.8c-0.7,0-1.3-0.1-1.9-0.3c-0.6-0.2-1.1-0.5-1.6-0.9c-0.1-0.1-0.2-0.2-0.3-0.4c-0.1-0.1-0.1-0.3-0.1-0.4
			c0-0.2,0.1-0.4,0.3-0.6c0.2-0.2,0.4-0.3,0.6-0.3c0.2,0,0.4,0.1,0.5,0.2c0.4,0.3,0.8,0.6,1.1,0.7c0.4,0.2,0.8,0.2,1.4,0.2
			c0.4,0,0.7-0.1,1-0.2c0.3-0.1,0.6-0.3,0.8-0.5c0.2-0.2,0.3-0.4,0.3-0.7c0-0.3-0.1-0.6-0.3-0.8c-0.2-0.2-0.5-0.4-0.8-0.5
			c-0.4-0.1-0.8-0.3-1.4-0.3c-0.5-0.1-1-0.2-1.4-0.4c-0.4-0.2-0.8-0.4-1-0.6c-0.3-0.3-0.5-0.6-0.6-0.9c-0.1-0.3-0.2-0.7-0.2-1.2
			c0-0.7,0.2-1.2,0.5-1.7c0.3-0.5,0.8-0.8,1.4-1.1s1.2-0.4,1.9-0.4c0.7,0,1.3,0.1,1.8,0.3c0.6,0.2,1,0.4,1.4,0.8
			c0.3,0.2,0.4,0.5,0.4,0.8c0,0.2-0.1,0.4-0.3,0.6s-0.4,0.3-0.6,0.3c-0.2,0-0.3,0-0.4-0.1c-0.2-0.1-0.4-0.3-0.7-0.4
			s-0.6-0.2-0.9-0.3c-0.3-0.1-0.6-0.1-0.8-0.1c-0.4,0-0.8,0.1-1.1,0.2c-0.3,0.1-0.5,0.3-0.7,0.5c-0.2,0.2-0.2,0.4-0.2,0.7
			c0,0.3,0.1,0.6,0.3,0.8c0.2,0.2,0.4,0.4,0.8,0.5c0.3,0.1,0.7,0.2,1.2,0.3c0.6,0.1,1.1,0.2,1.6,0.4c0.5,0.2,0.8,0.3,1.1,0.6
			c0.3,0.2,0.5,0.5,0.7,0.9c0.2,0.4,0.2,0.8,0.2,1.3c0,0.7-0.2,1.2-0.5,1.7c-0.4,0.5-0.8,0.8-1.4,1.1C68.5-19.9,67.8-19.8,67.1-19.8
			z"/>
		<path d="M73-28.8c-0.3,0-0.5-0.1-0.7-0.2c-0.2-0.2-0.3-0.4-0.3-0.6c0-0.3,0.1-0.5,0.3-0.6c0.2-0.2,0.4-0.2,0.7-0.2h6.7
			c0.3,0,0.5,0.1,0.7,0.2c0.2,0.2,0.3,0.4,0.3,0.6c0,0.3-0.1,0.5-0.3,0.6c-0.2,0.2-0.4,0.2-0.7,0.2H73z M76.4-19.9
			c-0.3,0-0.5-0.1-0.7-0.3c-0.2-0.2-0.3-0.4-0.3-0.7v-8.8h2v8.8c0,0.3-0.1,0.5-0.3,0.7C76.9-20,76.7-19.9,76.4-19.9z"/>
		<path d="M91.8-25.2c0,0.8-0.1,1.5-0.4,2.1c-0.3,0.7-0.6,1.2-1.1,1.7c-0.5,0.5-1,0.9-1.6,1.2c-0.6,0.3-1.3,0.4-2.1,0.4
			c-0.7,0-1.4-0.1-2.1-0.4c-0.6-0.3-1.2-0.7-1.6-1.2c-0.5-0.5-0.8-1.1-1.1-1.7c-0.3-0.7-0.4-1.4-0.4-2.1c0-0.8,0.1-1.5,0.4-2.1
			c0.3-0.7,0.6-1.2,1.1-1.7c0.5-0.5,1-0.9,1.6-1.2c0.6-0.3,1.3-0.4,2.1-0.4c0.7,0,1.4,0.1,2.1,0.4c0.6,0.3,1.2,0.7,1.6,1.2
			c0.5,0.5,0.8,1.1,1.1,1.7C91.6-26.7,91.8-26,91.8-25.2z M89.8-25.2c0-0.7-0.1-1.3-0.4-1.8c-0.3-0.6-0.6-1-1.1-1.3
			c-0.5-0.3-1-0.5-1.7-0.5c-0.6,0-1.2,0.2-1.7,0.5c-0.5,0.3-0.8,0.8-1.1,1.3c-0.3,0.5-0.4,1.2-0.4,1.9c0,0.7,0.1,1.3,0.4,1.8
			c0.3,0.6,0.6,1,1.1,1.3c0.5,0.3,1,0.5,1.7,0.5c0.6,0,1.2-0.2,1.7-0.5c0.5-0.3,0.8-0.8,1.1-1.3C89.6-23.9,89.8-24.5,89.8-25.2z"/>
		<path d="M94.6-19.9c-0.3,0-0.5-0.1-0.8-0.3c-0.2-0.2-0.3-0.4-0.3-0.7v-8.8c0-0.3,0.1-0.5,0.3-0.7c0.2-0.2,0.4-0.3,0.7-0.3h4.4
			c0.5,0,1,0.1,1.5,0.4c0.5,0.3,0.8,0.7,1.1,1.2c0.3,0.5,0.4,1.1,0.4,1.7c0,0.4-0.1,0.8-0.2,1.1c-0.2,0.4-0.4,0.7-0.6,1
			c-0.3,0.3-0.6,0.5-0.9,0.7l0-0.3c0.3,0.2,0.5,0.3,0.7,0.5c0.2,0.2,0.3,0.4,0.4,0.7c0.1,0.2,0.2,0.5,0.2,0.8c0,0.3,0.1,0.5,0.1,0.7
			c0,0.2,0,0.4,0.1,0.5c0,0.1,0.1,0.2,0.3,0.3c0.2,0.1,0.4,0.3,0.4,0.6c0.1,0.2,0,0.5-0.2,0.7c-0.1,0.1-0.3,0.2-0.4,0.3
			c-0.2,0-0.3,0-0.5,0c-0.2,0-0.3-0.1-0.4-0.1c-0.2-0.1-0.3-0.3-0.5-0.4c-0.2-0.2-0.3-0.5-0.4-0.8c-0.1-0.3-0.2-0.8-0.2-1.3
			c0-0.2,0-0.3-0.1-0.5c-0.1-0.1-0.1-0.3-0.3-0.4c-0.1-0.1-0.3-0.2-0.4-0.2c-0.2-0.1-0.4-0.1-0.6-0.1h-3.1l0.2-0.3v3.3
			c0,0.3-0.1,0.5-0.2,0.7C95-20,94.8-19.9,94.6-19.9z M95.2-25.3h3.5c0.2,0,0.4-0.1,0.5-0.3c0.2-0.2,0.3-0.4,0.4-0.7
			c0.1-0.3,0.2-0.6,0.2-0.9c0-0.4-0.1-0.8-0.4-1.1c-0.2-0.3-0.5-0.4-0.8-0.4h-3.5l0.2-0.5v4.3L95.2-25.3z"/>
		<path d="M104.9-30.5h5.1c0.3,0,0.5,0.1,0.7,0.3c0.2,0.2,0.3,0.4,0.3,0.6c0,0.3-0.1,0.5-0.3,0.6c-0.2,0.2-0.4,0.2-0.7,0.2h-4.2
			l0.1-0.3v3l-0.1-0.1h3.5c0.3,0,0.5,0.1,0.7,0.3c0.2,0.2,0.3,0.4,0.3,0.6c0,0.3-0.1,0.5-0.3,0.6c-0.2,0.2-0.4,0.2-0.7,0.2h-3.5
			l0.1-0.1v3.1l-0.1-0.1h4.2c0.3,0,0.5,0.1,0.7,0.3c0.2,0.2,0.3,0.4,0.3,0.6c0,0.3-0.1,0.5-0.3,0.6c-0.2,0.2-0.4,0.2-0.7,0.2h-5.1
			c-0.3,0-0.5-0.1-0.7-0.3c-0.2-0.2-0.3-0.4-0.3-0.7v-8.8c0-0.3,0.1-0.5,0.3-0.7C104.4-30.4,104.6-30.5,104.9-30.5z"/>
	</g>
</g>
<g>
	<path d="M-17.4-1.7c1.1,0,2.2,0,3.3,0c0.6,0,1-0.4,1-0.9c0-0.5-0.4-0.9-1.1-0.9c-0.7,0-1.3,0-2,0c-1,0-1.7-0.7-1.7-1.7
		c0-0.4,0-0.8,0-1.2c0-0.5,0.2-0.7,0.7-0.5C-17-6.9-17-6.8-17-6.7c0,0.4,0,0.9,0,1.3c0,0.7,0.3,1,1,1c0.6,0,1.3,0,1.9,0
		c1.1,0,1.9,0.7,1.9,1.7c0,1-0.8,1.7-1.9,1.7c-2.2,0-4.5,0-6.7,0c-0.5,0-0.8,0.1-1,0.6c-0.2,0.6,0.2,1.1,0.9,1.1c0.7,0,1.3,0,2,0
		c1.1,0,1.8,0.7,1.9,1.8c0,0.1,0,0.2,0,0.4c0,0.3,0.1,0.5,0.4,0.4c0.4-0.1,0.5,0.1,0.5,0.5c0,0.4-0.2,0.9,0.1,1.2
		c0.2,0.3,0.8,0.1,1.2,0.1c1.4,0,2.7,0,4.1,0.1c3.2,0.2,6.2,3.2,6.4,6.4c0.3,3.4-2,6.5-5.3,7.3c-1.9,0.5-3.6,0.2-5.3-0.8
		c-1.7-1-3.3-1-5,0c-2.4,1.4-4.8,1.4-7.2,0c-2.4-1.4-3.5-3.6-3.4-6.3c0.1-3.2,3.1-6.3,6.3-6.6c1.7-0.1,3.3,0,5,0
		c0.3,0,0.5-0.1,0.4-0.4c0-0.2,0-0.4,0-0.7c-0.1-0.5,0-0.8,0.6-0.7c0.1,0,0.2,0,0.3-0.1c0.3-0.7-0.2-1.6-0.9-1.6c-0.7,0-1.4,0-2,0
		c-1.1,0-1.8-0.7-1.8-1.7c0-1,0.8-1.7,1.8-1.7C-19.7-1.8-18.6-1.7-17.4-1.7z"/>
	<path class="st0" d="M-27.1,17.2c-1.3-0.9-2.1-2.1-2.4-3.6c-1-4.3,3-7.5,5.9-7.5c4.1,0.1,8.2,0,12.2,0c2.1,0,3.7,1.1,4.9,2.7
		c-0.6,0.8-1.2,1.5-2.1,1.7c-0.7,0.1-1,0.7-1.4,1.1c-0.8,0.6-1.7,0.9-2.5,1.4c-0.1,0.1-0.3,0.2-0.5-0.1c0-0.2,0.1-0.4,0.1-0.5
		c0.1-0.7-0.2-1.4-0.9-1.7c-0.7-0.3-1.5-0.1-1.9,0.5c-0.5,0.6-0.5,1.4,0,2c0.2,0.3,0.6,0.4,0.8,0.7c0,0.3-0.2,0.3-0.4,0.4
		c-3.6,1.4-7.4,2.2-11.3,2.9C-26.7,17.2-26.9,17.2-27.1,17.2z"/>
	<path class="st1" d="M-27.1,17.2c1.1-0.2,2.2-0.4,3.2-0.6c3-0.6,5.9-1.4,8.7-2.4c0.1,0,0.2-0.1,0.3-0.2c0.1-0.1,0.1-0.1,0.2-0.1
		c0.6,0.1,1.1-0.2,1.5-0.6c0.1-0.1,0.1-0.2,0.3-0.1c0.8-0.2,1.4-0.7,2.1-1c0.3-0.1,0.5-0.3,0.7-0.4c0.2,0.2,0.1,0.5,0.1,0.7
		c0.1,0.9,0.7,1.5,1.6,1.5c0.8,0,1.5-0.7,1.6-1.5c0.1-0.8-0.6-1.5-1.4-1.7c-0.2,0-0.4,0-0.5-0.2c0.7-0.1,1.1-0.6,1.5-1
		C-6.8,9.2-6.6,9-6.4,8.9c1.6,2,1.5,5.1-0.2,7.2c-1.9,2.3-5.2,2.9-7.8,1.4c-2-1.2-4-1.2-6,0C-22.6,18.7-25.3,18.6-27.1,17.2z"/>
	<path class="st5" d="M-17,4.8c0.1,0.4-0.2,0.4-0.5,0.4c-0.4,0-0.3-0.2-0.3-0.5c0-0.4,0.2-0.4,0.5-0.4C-17.1,4.3-17,4.5-17,4.8z"/>
	<path d="M-23.5,15.7c-1.4,0-1.3,0.1-1.3-1.3c0-0.9,0-0.9-0.9-0.9c-1.4,0-1.3,0-1.3-1.3c0-1.4,0-1.3,1.3-1.3c0.9,0,0.9,0,0.9-0.9
		c0-1.4,0-1.2,1.3-1.2c1.5,0,1.4-0.1,1.4,1.4c0,0.8,0,0.8,0.8,0.8c1.5,0,1.4-0.2,1.4,1.4c0,1.2,0.2,1.3-1.2,1.3
		c-0.9,0-0.9,0-0.9,0.9C-22.2,15.7-22.1,15.7-23.5,15.7z"/>
	<path class="st6" d="M-11.3,11.3c-1,0-1.7-0.7-1.8-1.7c0-1,0.8-1.8,1.7-1.7c0.9,0,1.7,0.8,1.7,1.7C-9.6,10.5-10.3,11.3-11.3,11.3z"
		/>
	<path class="st7" d="M-12.8,13.1c-0.5,0.7-1.2,1-2,0.8c-0.8-0.3-1.3-0.9-1.2-1.7c0-0.7,0.4-1.3,1.1-1.5c0.6-0.3,1.4-0.1,1.9,0.3
		c0.5,0.5,0.7,1.2,0.4,1.9C-12.8,12.9-12.8,13-12.8,13.1z"/>
	<path class="st7" d="M-8.5,10.5c1.3,0,2.2,0.9,2,2c-0.2,0.9-1,1.6-1.9,1.5c-1-0.1-1.6-0.9-1.6-1.9c0-0.1,0-0.3,0-0.4
		C-9.7,11-9.2,10.6-8.5,10.5z"/>
	<path class="st7" d="M-11.3,16.6c-1,0-1.7-0.8-1.7-1.8c0-0.9,0.8-1.7,1.7-1.7c0.9,0,1.8,0.8,1.8,1.7C-9.6,15.8-10.4,16.6-11.3,16.6
		z"/>
	<path class="st8" d="M-25.3,12.6c-0.1,0-0.2,0-0.4,0c-0.3,0-0.5-0.1-0.5-0.4c0-0.3,0.1-0.5,0.5-0.5c0.4,0,0.8,0,1.2,0
		c0.4,0,0.5-0.2,0.5-0.5c0-0.4,0-0.9,0-1.3c0-0.3,0.2-0.4,0.4-0.3c0.2,0,0.5,0,0.5,0.3c0,0.4,0,0.9,0,1.3c0,0.2,0,0.4,0.2,0.5
		c0.2,0.1,0.4,0,0.6,0.1c-0.1,0.3-0.3,0.3-0.5,0.4c-0.7,0.3-1.4,0.4-2.1,0.4C-25,12.6-25.2,12.6-25.3,12.6z"/>
	<path class="st9" d="M-25.3,12.6c0.7-0.2,1.4-0.2,2.1-0.4c0.3-0.1,0.6-0.2,1-0.3c-0.2-0.2-0.5,0-0.6-0.2c0.5,0,1,0,1.5,0
		c0.4,0,0.4,0.2,0.4,0.5c0,0.3-0.1,0.4-0.4,0.4c-0.4,0-0.8,0-1.2,0c-0.3,0-0.5,0.2-0.5,0.5c0,0.4,0,0.8,0,1.3c0,0.4-0.2,0.4-0.5,0.4
		c-0.3,0-0.4-0.1-0.4-0.4c0-0.4,0-0.7,0-1.1c0-0.6-0.1-0.7-0.7-0.7C-24.9,12.6-25.1,12.6-25.3,12.6z"/>
	<path class="st10" d="M-11.3,10.5c-0.5,0-0.9-0.4-0.9-0.9c0-0.5,0.4-0.8,0.8-0.9c0.5,0,0.9,0.3,0.9,0.8
		C-10.5,10.1-10.8,10.4-11.3,10.5z"/>
	<path class="st11" d="M-14.4,13.1c-0.5,0-0.8-0.4-0.8-0.9c0-0.5,0.4-0.9,0.9-0.9c0.5,0,0.9,0.4,0.8,0.9
		C-13.6,12.7-13.9,13.1-14.4,13.1z"/>
	<path class="st12" d="M-8.2,13c-0.6,0-0.9-0.4-0.9-0.9c0-0.4,0.4-0.8,0.8-0.9c0.5,0,0.8,0.3,0.9,0.9C-7.6,12.7-7.8,12.9-8.2,13z"/>
	<path class="st13" d="M-8.2,13c0.3-0.2,0.6-0.5,0.8-0.8C-7.5,12.8-7.7,13-8.2,13z"/>
	<path class="st14" d="M-11.4,15.7c-0.5,0-0.9-0.4-0.8-0.9c0-0.5,0.4-0.8,0.9-0.8c0.5,0,0.9,0.4,0.9,0.9
		C-10.5,15.3-10.9,15.7-11.4,15.7z"/>
</g>
<g>
	<path class="st15" d="M10.1,19.9c-2.6,0-5.2,0-7.8,0c-1.3,0-2.1-0.9-2.1-2.1c0-5.2,0-10.3,0-15.5c0-1.3,0.9-2.1,2.1-2.1
		c5.2,0,10.3,0,15.5,0C19.1,0.1,20,1,20,2.2c0,5.2,0,10.4,0,15.6c0,1.2-0.9,2.1-2.1,2.1C15.3,19.9,12.7,19.9,10.1,19.9z M6.3,9.1
		c0-1.4,0-2.7,0-4.1c0-0.3-0.1-0.5-0.5-0.5c-0.4,0-0.8,0-1.2,0c-0.1,0-0.3,0-0.4,0.1c-0.5,0.5-1.1,0.8-1,1.7c0.1,0.6,0,0.6,0.6,0.6
		c0.3,0,0.4,0.2,0.4,0.5c0,2,0,4,0,5.9c0,0.3-0.1,0.4-0.4,0.4c-0.6,0.1-0.6,0.1-0.6,0.7c0,0.1,0,0.3,0,0.4c0,0.5,0.1,0.6,0.6,0.6
		c0.8,0,1.5,0,2.3,0c1.3,0,1.2,0.1,1.2-1.3c0-0.3-0.1-0.4-0.4-0.4c-0.5,0-0.6-0.1-0.6-0.6C6.3,11.8,6.3,10.5,6.3,9.1z M12.1,6.7
		c0-0.6,0-1.1,0-1.7c0-0.3-0.2-0.5-0.5-0.5c-0.1,0-0.2,0-0.3,0c-0.4,0-0.5,0.1-0.5,0.5c0,0.8,0,1.6,0,2.4c0,0.4-0.1,0.5-0.5,0.5
		C10.1,8,10,8,9.9,8C9.5,8,9.4,7.9,9.4,7.4c0-0.8,0-1.6,0-2.4c0-0.4-0.1-0.5-0.5-0.5c-0.1,0-0.3,0-0.4,0C8.2,4.5,8,4.7,8.1,5
		c0,1.1,0,2.2,0,3.3c0,0.6,0.4,1,1,1c0.6,0,1.3,0,1.9,0c0.7,0,1.1-0.4,1.1-1.1C12.1,7.7,12.1,7.2,12.1,6.7z M12.4,12
		c1.3,0,2.6,0,3.9,0c0.4,0,0.5-0.1,0.5-0.5c0-0.1,0-0.2,0-0.3c0-0.5-0.1-0.6-0.6-0.6c-2.6,0-5.1,0-7.7,0c-0.5,0-0.6,0.1-0.6,0.6
		c0,0.1,0,0.2,0,0.2C8.1,12,8.1,12,8.6,12C9.9,12,11.2,12,12.4,12z M13.5,6.9c0,0.5,0,1,0,1.5c0,0.9,0,0.9,0.9,0.9
		c0.4,0,0.5-0.2,0.5-0.5c0-0.4,0-0.8,0-1.2c0-0.2,0-0.3,0.3-0.3c0.3,0,0.6,0,0.9,0c0.6,0,0.8-0.3,0.8-0.8c0-0.4,0-0.8,0-1.2
		c0-0.5-0.3-0.8-0.8-0.8c-0.7,0-1.4,0-2.1,0c-0.4,0-0.5,0.2-0.5,0.5C13.5,5.7,13.5,6.3,13.5,6.9z M2.7,3.5c0.5,0,0.9-0.4,0.9-0.8
		c0-0.5-0.4-0.9-0.8-0.9c-0.4,0-0.8,0.4-0.9,0.8C1.9,3.1,2.3,3.5,2.7,3.5z M17.4,3.5c0.5,0,0.9-0.4,0.9-0.8c0-0.4-0.4-0.8-0.8-0.9
		c-0.5,0-0.9,0.4-0.9,0.8C16.6,3.1,16.9,3.5,17.4,3.5z M2.8,16.5c-0.5,0-0.9,0.4-0.9,0.8c0,0.4,0.4,0.8,0.8,0.9
		c0.5,0,0.9-0.4,0.9-0.8C3.6,16.9,3.3,16.5,2.8,16.5z M17.4,16.5c-0.5,0-0.9,0.3-0.9,0.8c0,0.5,0.4,0.9,0.8,0.9
		c0.4,0,0.8-0.4,0.9-0.8C18.3,16.9,17.9,16.5,17.4,16.5z"/>
	<path class="st3" d="M6.3,9.1c0,1.3,0,2.7,0,4c0,0.5,0.1,0.6,0.6,0.6c0.3,0,0.5,0.1,0.4,0.4c0,1.4,0.1,1.3-1.2,1.3
		c-0.8,0-1.5,0-2.3,0c-0.5,0-0.6-0.1-0.6-0.6c0-0.1,0-0.3,0-0.4c0-0.6,0-0.6,0.6-0.7c0.3,0,0.4-0.2,0.4-0.4c0-2,0-4,0-5.9
		c0-0.3-0.1-0.4-0.4-0.5c-0.6,0-0.5-0.1-0.6-0.6c-0.1-0.9,0.5-1.2,1-1.7c0.1-0.1,0.3-0.1,0.4-0.1c0.4,0,0.8,0,1.2,0
		c0.3,0,0.5,0.1,0.5,0.5C6.3,6.4,6.3,7.8,6.3,9.1z"/>
	<path class="st3" d="M12.1,6.7c0,0.5,0,1.1,0,1.6c0,0.7-0.4,1.1-1.1,1.1c-0.6,0-1.3,0-1.9,0c-0.6,0-1-0.4-1-1c0-1.1,0-2.2,0-3.3
		c0-0.3,0.2-0.5,0.5-0.5c0.1,0,0.3,0,0.4,0c0.4,0,0.5,0.2,0.5,0.5c0,0.8,0,1.6,0,2.4C9.4,7.9,9.5,8,9.9,8c0.1,0,0.2,0,0.3,0
		c0.4,0,0.5-0.1,0.5-0.5c0-0.8,0-1.6,0-2.4c0-0.5,0.1-0.5,0.5-0.5c0.1,0,0.2,0,0.3,0c0.3,0,0.5,0.1,0.5,0.5
		C12.1,5.6,12.1,6.1,12.1,6.7z"/>
	<path class="st16" d="M12.4,12c-1.3,0-2.6,0-3.9,0c-0.5,0-0.5-0.1-0.5-0.5c0-0.1,0-0.2,0-0.2c0-0.5,0.1-0.6,0.6-0.6
		c2.6,0,5.1,0,7.7,0c0.5,0,0.6,0.1,0.6,0.6c0,0.1,0,0.2,0,0.3c0,0.5-0.1,0.5-0.5,0.5C15.1,12,13.8,12,12.4,12z"/>
	<path class="st17" d="M13.5,6.9c0-0.6,0-1.3,0-1.9c0-0.4,0.2-0.5,0.5-0.5c0.7,0,1.4,0,2.1,0c0.5,0,0.8,0.3,0.8,0.8
		c0,0.4,0,0.8,0,1.2c0,0.5-0.3,0.8-0.8,0.8c-0.3,0-0.6,0-0.9,0c-0.2,0-0.3,0.1-0.3,0.3c0,0.4,0,0.8,0,1.2c0,0.3-0.1,0.5-0.5,0.5
		c-0.9,0-0.9,0-0.9-0.9C13.5,7.9,13.5,7.4,13.5,6.9z M15.1,6.2c0.2,0,0.3,0,0.4,0c0.2,0,0.3-0.1,0.3-0.3c0-0.2-0.1-0.3-0.4-0.3
		c-0.1,0-0.2,0-0.3,0c-0.3,0-0.6-0.1-0.6,0.3C14.5,6.3,14.9,6.2,15.1,6.2z"/>
	<path class="st4" d="M2.7,3.5c-0.5,0-0.9-0.4-0.8-0.9c0-0.4,0.4-0.8,0.9-0.8c0.5,0,0.8,0.4,0.8,0.9C3.6,3.2,3.2,3.5,2.7,3.5z"/>
	<path class="st4" d="M17.4,3.5c-0.5,0-0.8-0.4-0.8-0.9c0-0.5,0.4-0.8,0.9-0.8c0.4,0,0.8,0.4,0.8,0.9C18.3,3.2,17.9,3.5,17.4,3.5z"
		/>
	<path class="st4" d="M2.8,16.5c0.5,0,0.8,0.4,0.8,0.9c0,0.5-0.4,0.9-0.9,0.8c-0.4,0-0.8-0.4-0.8-0.9C1.9,16.9,2.3,16.5,2.8,16.5z"
		/>
	<path class="st4" d="M17.4,16.5c0.5,0,0.9,0.4,0.8,0.9c0,0.4-0.4,0.8-0.9,0.8c-0.5,0-0.8-0.4-0.8-0.9
		C16.6,16.8,16.9,16.5,17.4,16.5z"/>
	<path class="st15" d="M15.1,6.2c-0.2,0-0.6,0.1-0.6-0.3c0-0.4,0.4-0.3,0.6-0.3c0.1,0,0.2,0,0.3,0c0.2,0,0.3,0.1,0.4,0.3
		c0,0.2-0.1,0.3-0.3,0.3C15.4,6.2,15.3,6.2,15.1,6.2z"/>
</g>
</svg>
